<svg xmlns="http://www.w3.org/2000/svg" xmlns:xlink="http://www.w3.org/1999/xlink" viewBox="0 0 99.34 78.09"><defs><style>.cls-1{fill:url(#Безымянный_градиент_30);}.cls-2{fill:url(#Безымянный_градиент_30-2);}.cls-3{fill:url(#Безымянный_градиент_30-3);}.cls-4{fill:url(#Безымянный_градиент_30-4);}</style><linearGradient id="Безымянный_градиент_30" x1="49.67" y1="47.72" x2="49.67" y2="78.09" gradientUnits="userSpaceOnUse"><stop offset="0" stop-color="#bbbaba"/><stop offset="1" stop-color="#f05322"/></linearGradient><linearGradient id="Безымянный_градиент_30-2" x1="12.43" y1="25.18" x2="12.43" y2="67.95" xlink:href="#Безымянный_градиент_30"/><linearGradient id="Безымянный_градиент_30-3" x1="86.93" y1="25.26" x2="86.93" y2="68.03" xlink:href="#Безымянный_градиент_30"/><linearGradient id="Безымянный_градиент_30-4" x1="49.67" y1="0" x2="49.67" y2="49.68" xlink:href="#Безымянный_градиент_30"/></defs><title>mail</title><g id="Слой_2" data-name="Слой 2"><g id="Слой_1-2" data-name="Слой 1"><path class="cls-1" d="M66.23,49.13c-2.1,1.54-3.8,2.75-5.12,3.63a33.06,33.06,0,0,1-5.24,2.66,16.2,16.2,0,0,1-6.1,1.38h-.09a16.2,16.2,0,0,1-6.1-1.38,33.16,33.16,0,0,1-5.25-2.66q-2-1.3-5.21-3.63l-1.95-1.38L3.06,75.89a8.5,8.5,0,0,0,5.82,2.2l81.59,0a8.46,8.46,0,0,0,5.81-2.17L68.15,47.72Z"/><path class="cls-2" d="M5.64,29.92l0,.09A30,30,0,0,1,0,25.18V68L24.84,43.11Q17.4,37.91,5.64,29.92Z"/><path class="cls-3" d="M93.82,30.09V30Q82.5,37.66,74.51,43.19L99.34,68V25.26A30.23,30.23,0,0,1,93.82,30.09Z"/><path class="cls-4" d="M9.54,24.07,20.91,32l8.93,6.21,5.6,3.92.81.58,1.53,1.1c1.2.87,2.21,1.58,3,2.12s1.75,1.13,2.88,1.79a16.31,16.31,0,0,0,3.26,1.5,7.84,7.84,0,0,0,5.51,0,16,16,0,0,0,3.19-1.5c1.13-.66,2.08-1.26,2.88-1.79s1.8-1.25,3-2.12L63,42.67l.83-.58,5.6-3.9,20.4-14.12a26.21,26.21,0,0,0,6.72-6.81,14.68,14.68,0,0,0,2.76-8.38,8.5,8.5,0,0,0-2.63-6.26A8.58,8.58,0,0,0,90.47,0H8.88A7.93,7.93,0,0,0,2.31,2.9,11,11,0,0,0,0,10.1a13,13,0,0,0,3.05,7.57A27.53,27.53,0,0,0,9.54,24.07Z"/></g></g></svg>