<svg width="246" height="244" viewBox="0 0 246 244" fill="none" xmlns="http://www.w3.org/2000/svg">
<path d="M18.2258 226.263H220.24V243.667H18.2258V226.263Z" fill="#52C3B0"/>
<g opacity="0.3">
<path opacity="0.3" d="M18.2232 226.262H81.2688V243.666H18.2232V226.262Z" fill="black"/>
</g>
<path d="M25.9764 94.3574L72.657 76.7045C75.8859 75.4848 77.51 71.8772 76.2903 68.6548L51.8523 4.03877C50.6326 0.8099 47.025 -0.814163 43.8026 0.405491L14.1971 11.6006L0.209549 43.8894L17.9202 90.7241C19.1463 93.953 22.7539 95.577 25.9764 94.3574Z" fill="#F5F5F5"/>
<path d="M14.1974 11.601L21.0724 29.7866C22.2086 32.7844 20.6937 36.1417 17.6959 37.2715L0.209909 43.8897L14.1974 11.601Z" fill="#EBEBEB"/>
<path d="M21.4449 31.4766C21.4449 31.4766 23.345 35.8031 18.8708 39.1475C18.7039 39.2759 18.5242 39.3851 18.3444 39.4942C16.2132 40.7652 2.19365 49.123 2.06527 48.7764C1.92404 48.4041 0.216526 43.8914 0.216526 43.8914L17.7025 37.2796C17.7025 37.2796 22.0098 35.4822 21.4449 31.4766Z" fill="#E0E0E0"/>
<path d="M24.7126 27.5656C24.8025 27.7967 29.7068 26.1598 35.6702 23.9066C41.6337 21.6534 46.3968 19.6314 46.3069 19.4003C46.217 19.1692 41.3127 20.8061 35.3493 23.0593C29.3858 25.3124 24.6227 27.3345 24.7126 27.5656Z" fill="#E0E0E0"/>
<path d="M14.6533 43.1258C14.7431 43.3569 22.7736 40.5388 32.5886 36.8285C42.4036 33.1182 50.2928 29.915 50.203 29.6839C50.1131 29.4528 42.0891 32.2709 32.2676 35.9812C22.4526 39.6915 14.5634 42.8883 14.6533 43.1258Z" fill="#E0E0E0"/>
<path d="M14.6969 52.9215C14.7868 53.1526 23.5298 50.0649 34.2306 46.0208C44.9315 41.9767 53.5333 38.5039 53.4434 38.2728C53.3535 38.0417 44.6105 41.1293 33.9097 45.1799C23.2088 49.2176 14.607 52.684 14.6969 52.9215Z" fill="#E0E0E0"/>
<path d="M17.76 61.0233C17.8499 61.2544 26.5929 58.1667 37.2938 54.1226C47.9946 50.0785 56.5964 46.6057 56.5065 46.3746C56.4167 46.1435 47.6737 49.2311 36.9728 53.2817C26.2784 57.3194 17.6702 60.7858 17.76 61.0233Z" fill="#E0E0E0"/>
<path d="M20.8189 69.1229C20.9088 69.354 29.6518 66.2663 40.3527 62.2222C51.0535 58.1717 59.6553 54.7053 59.5654 54.4742C59.4756 54.2431 50.7326 57.3308 40.0317 61.3813C29.3373 65.419 20.7355 68.8854 20.8189 69.1229Z" fill="#E0E0E0"/>
<path d="M23.892 77.2245C23.9818 77.4556 32.7248 74.3679 43.4257 70.3238C54.1265 66.2733 62.7283 62.8069 62.6384 62.5758C62.5486 62.3447 53.8056 65.4323 43.1047 69.4829C32.4039 73.5206 23.8021 76.987 23.892 77.2245Z" fill="#E0E0E0"/>
<path d="M148.066 123.168L209.607 144.717C211.738 145.462 214.068 144.339 214.813 142.214L245.689 54.033C246.434 51.9018 245.311 49.5716 243.186 48.827L181.645 27.2776C179.514 26.533 177.183 27.6563 176.439 29.7811L145.562 117.962C144.818 120.093 145.935 122.423 148.066 123.168Z" fill="#EBEBEB"/>
<path d="M180.849 32.7622L240.386 53.6107L209.78 141.01L150.243 120.162L180.849 32.7622Z" fill="#E0E0E0"/>
<path d="M181.91 32.3431L241.447 53.1917L211.424 138.925L151.888 118.077L181.91 32.3431Z" fill="#FAFAFA"/>
<path d="M151.895 118.079C152.146 117.36 164.233 82.9461 181.995 32.3754L181.886 32.4268C199.943 38.7497 220.145 45.8301 241.412 53.2764H241.418L241.36 53.1545C230.139 85.3598 219.695 115.1 211.357 138.89L211.453 138.845C175.242 126.225 152.48 118.284 151.895 118.079C152.48 118.284 175.223 126.276 211.402 138.999L211.472 139.025L211.498 138.954C219.837 115.158 230.255 85.4175 241.534 53.2251L241.566 53.1352L241.476 53.1031H241.469C220.202 45.6568 199.995 38.5892 181.937 32.2663L181.854 32.2406L181.828 32.3241C164.169 82.9205 152.146 117.366 151.895 118.079Z" fill="#E0E0E0"/>
<path d="M173.01 125.473C173.01 125.473 159.754 114.291 157.456 102.646C157.456 102.646 161.134 108.417 168.792 109.47C168.792 109.47 169.056 121.699 173.01 125.473Z" fill="#E0E0E0"/>
<path d="M218.555 79.5777L221.687 80.6753C222.83 81.0733 224.082 80.4763 224.486 79.3273L225.584 76.1947C225.982 75.0521 225.385 73.8003 224.236 73.3959L221.103 72.2983C219.96 71.9003 218.709 72.4972 218.304 73.6463L217.207 76.7789C216.809 77.9215 217.406 79.1797 218.555 79.5777Z" fill="#EBEBEB"/>
<path d="M221.483 77.6963C221.483 77.6963 221.489 77.6963 221.483 77.6963C221.534 77.7155 221.592 77.7091 221.63 77.6834L223.068 76.8489C223.152 76.7976 223.184 76.6884 223.132 76.605C223.081 76.5215 222.972 76.4894 222.888 76.5408L221.624 77.2726L220.109 74.0309C220.064 73.941 219.961 73.9025 219.871 73.9474C219.782 73.9924 219.743 74.0951 219.788 74.1849L221.386 77.6064C221.399 77.6449 221.438 77.6834 221.483 77.6963Z" fill="white"/>
<path d="M180.371 59.029C180.351 59.0804 188.087 61.8278 197.638 65.1722C207.197 68.5166 214.951 71.1934 214.97 71.1421C214.99 71.0907 207.254 68.3433 197.703 64.9989C188.144 61.6545 180.384 58.9841 180.371 59.029Z" fill="#E0E0E0"/>
<path d="M198.53 71.3658C198.523 71.3786 198.722 71.4621 199.088 71.6033C199.486 71.7509 200.006 71.9435 200.641 72.181C201.957 72.656 203.774 73.3044 205.783 74.0105C207.799 74.7166 209.622 75.3457 210.944 75.7886C211.586 76.0005 212.113 76.1738 212.517 76.3086C212.889 76.4241 213.095 76.4883 213.101 76.4755C213.108 76.4626 212.909 76.3792 212.543 76.238C212.145 76.0903 211.625 75.8977 210.989 75.6602C209.673 75.1852 207.857 74.5369 205.841 73.8308C203.832 73.1246 202.002 72.4956 200.68 72.0526C200.038 71.8408 199.512 71.6675 199.107 71.5327C198.741 71.4107 198.536 71.3529 198.53 71.3658Z" fill="#E0E0E0"/>
<path d="M179.547 61.3914C179.528 61.4427 187.263 64.1901 196.815 67.5345C206.373 70.879 214.128 73.5558 214.147 73.5044C214.166 73.4531 206.431 70.7057 196.879 67.3612C187.321 64.0168 179.567 61.34 179.547 61.3914Z" fill="#E0E0E0"/>
<path d="M214.077 92.3501L217.209 93.4478C218.352 93.8458 219.604 93.2488 220.008 92.0998L221.106 88.9672C221.504 87.8246 220.907 86.5728 219.758 86.1684L216.625 85.0707C215.482 84.6727 214.231 85.2697 213.826 86.4188L212.729 89.5513C212.331 90.694 212.934 91.9457 214.077 92.3501Z" fill="#EBEBEB"/>
<path d="M217.005 90.4684C217.011 90.4684 217.011 90.4684 217.005 90.4684C217.056 90.4876 217.114 90.4812 217.152 90.4555L218.59 89.621C218.674 89.5697 218.706 89.4605 218.654 89.3771C218.603 89.2936 218.494 89.2615 218.41 89.3129L217.146 90.0447L215.631 86.803C215.586 86.7131 215.483 86.6746 215.393 86.7131C215.303 86.758 215.265 86.8608 215.31 86.9506L216.908 90.3721C216.921 90.417 216.96 90.4491 217.005 90.4684Z" fill="white"/>
<path d="M175.893 71.8022C175.873 71.8535 183.609 74.601 193.16 77.9454C202.719 81.2898 210.473 83.9666 210.492 83.9153C210.512 83.8639 202.776 81.1165 193.225 77.7721C183.666 74.4277 175.905 71.7573 175.893 71.8022Z" fill="#E0E0E0"/>
<path d="M194.046 84.1402C194.039 84.153 194.238 84.2365 194.604 84.3777C195.002 84.5253 195.522 84.7179 196.158 84.9554C197.474 85.4304 199.29 86.0788 201.299 86.7849C203.315 87.491 205.138 88.1201 206.46 88.563C207.102 88.7749 207.629 88.9482 208.033 89.083C208.406 89.1985 208.611 89.2627 208.617 89.2499C208.624 89.2371 208.425 89.1536 208.059 89.0124C207.661 88.8647 207.141 88.6722 206.505 88.4346C205.189 87.9596 203.373 87.3113 201.357 86.6052C199.348 85.899 197.518 85.27 196.196 84.827C195.554 84.6152 195.028 84.4419 194.623 84.3071C194.258 84.1851 194.052 84.1273 194.046 84.1402Z" fill="#E0E0E0"/>
<path d="M175.069 74.1639C175.05 74.2153 182.785 76.9627 192.337 80.3071C201.895 83.6516 209.649 86.3284 209.669 86.277C209.688 86.2257 201.953 83.4782 192.401 80.1338C182.849 76.783 175.088 74.1126 175.069 74.1639Z" fill="#E0E0E0"/>
<path d="M209.606 105.124L212.739 106.222C213.881 106.62 215.133 106.023 215.538 104.874L216.635 101.741C217.033 100.599 216.436 99.3469 215.287 98.9424L212.155 97.8448C211.012 97.4468 209.76 98.0438 209.356 99.1928L208.258 102.325C207.86 103.468 208.464 104.72 209.606 105.124Z" fill="#EBEBEB"/>
<path d="M212.535 103.242C212.541 103.242 212.541 103.242 212.535 103.242C212.586 103.262 212.644 103.255 212.683 103.23L214.121 102.395C214.204 102.344 214.236 102.235 214.185 102.151C214.133 102.068 214.024 102.036 213.941 102.087L212.676 102.819L211.161 99.577C211.116 99.4871 211.014 99.4486 210.924 99.4936C210.834 99.5385 210.795 99.6412 210.84 99.7311L212.439 103.153C212.458 103.191 212.49 103.223 212.535 103.242Z" fill="white"/>
<path d="M171.421 84.5754C171.402 84.6267 179.137 87.3742 188.689 90.7186C198.247 94.063 206.001 96.7398 206.021 96.6885C206.04 96.6371 198.305 93.8897 188.753 90.5453C179.195 87.2009 171.44 84.5305 171.421 84.5754Z" fill="#E0E0E0"/>
<path d="M189.579 96.9069C189.573 96.9197 189.772 97.0031 190.137 97.1444C190.535 97.292 191.055 97.4846 191.691 97.7221C193.007 98.1971 194.823 98.8455 196.833 99.5516C198.848 100.258 200.671 100.887 201.994 101.33C202.636 101.542 203.162 101.715 203.566 101.85C203.939 101.965 204.144 102.029 204.151 102.017C204.157 102.004 203.958 101.92 203.592 101.779C203.194 101.631 202.674 101.439 202.039 101.201C200.723 100.726 198.906 100.078 196.89 99.3718C194.881 98.6657 193.052 98.0366 191.729 97.5937C191.087 97.3819 190.561 97.2086 190.157 97.0738C189.797 96.9582 189.585 96.9004 189.579 96.9069Z" fill="#E0E0E0"/>
<path d="M170.599 86.9375C170.58 86.9888 178.315 89.7363 187.867 93.0807C197.425 96.4251 205.18 99.102 205.199 99.0506C205.218 98.9992 197.483 96.2518 187.931 92.9074C178.379 89.5565 170.619 86.8861 170.599 86.9375Z" fill="#E0E0E0"/>
<path d="M205.131 117.9L208.263 118.998C209.406 119.396 210.658 118.799 211.062 117.65L212.16 114.517C212.558 113.375 211.961 112.123 210.812 111.718L207.679 110.621C206.536 110.223 205.285 110.82 204.88 111.969L203.783 115.101C203.385 116.244 203.988 117.496 205.131 117.9Z" fill="#EBEBEB"/>
<path d="M208.061 116.02C208.112 116.039 208.17 116.033 208.209 116.007L209.647 115.173C209.73 115.121 209.762 115.012 209.711 114.929C209.659 114.845 209.55 114.813 209.467 114.864L208.202 115.596L206.687 112.354C206.642 112.265 206.54 112.226 206.45 112.271C206.36 112.316 206.321 112.419 206.366 112.509L207.965 115.93C207.978 115.969 208.016 116.001 208.061 116.02Z" fill="white"/>
<path d="M166.947 97.353C166.927 97.4044 174.663 100.152 184.214 103.496C193.773 106.841 201.527 109.517 201.546 109.466C201.566 109.415 193.83 106.667 184.279 103.323C174.727 99.9785 166.966 97.3017 166.947 97.353Z" fill="#E0E0E0"/>
<path d="M185.108 109.686C185.102 109.699 185.301 109.782 185.667 109.923C186.065 110.071 186.585 110.264 187.22 110.501C188.536 110.976 190.353 111.624 192.362 112.331C194.378 113.037 196.201 113.666 197.523 114.109C198.165 114.321 198.691 114.494 199.096 114.629C199.468 114.744 199.674 114.808 199.68 114.796C199.686 114.783 199.487 114.699 199.121 114.558C198.723 114.41 198.204 114.218 197.568 113.98C196.252 113.505 194.435 112.857 192.42 112.151C190.411 111.445 188.581 110.816 187.259 110.373C186.617 110.161 186.09 109.988 185.686 109.853C185.32 109.737 185.108 109.673 185.108 109.686Z" fill="#E0E0E0"/>
<path d="M166.121 99.7136C166.102 99.765 173.837 102.512 183.389 105.857C192.947 109.201 200.702 111.878 200.721 111.827C200.74 111.775 193.005 109.028 183.453 105.684C173.901 102.333 166.141 99.6623 166.121 99.7136Z" fill="#E0E0E0"/>
<path d="M234.701 44.8411L233.128 49.3282C232.216 51.9344 229.366 53.3017 226.76 52.3901L193.829 40.8612C191.223 39.9497 189.856 37.0995 190.767 34.4933L192.334 30.0127L234.701 44.8411Z" fill="#E0E0E0"/>
<path d="M213.083 38.7561C215.522 39.6099 218.199 38.3196 219.053 35.8803C219.907 33.441 218.616 30.7642 216.177 29.9104C213.738 29.0566 211.061 30.3469 210.207 32.7862C209.36 35.2255 210.65 37.9024 213.083 38.7561ZM215.587 31.6115C217.089 32.1379 217.885 33.7876 217.358 35.2897C216.832 36.7918 215.182 37.5878 213.68 37.0614C212.178 36.5351 211.382 34.8853 211.908 33.3832C212.435 31.8811 214.084 31.0851 215.587 31.6115Z" fill="#E0E0E0"/>
<path d="M186.765 50.3969C186.732 50.4803 195.418 53.6 206.157 57.3617C216.896 61.1234 225.627 64.1019 225.659 64.0185C225.691 63.935 217.006 60.8153 206.266 57.0536C195.527 53.2919 186.797 50.3134 186.765 50.3969Z" fill="#E0E0E0"/>
<path d="M197.891 51.9986C197.859 52.0821 201.685 53.5007 206.429 55.1633C211.172 56.8259 215.043 58.1033 215.075 58.0199C215.107 57.9364 211.281 56.5178 206.538 54.8552C201.787 53.1926 197.917 51.9152 197.891 51.9986Z" fill="#E0E0E0"/>
<path d="M26.812 183.102C24.5075 181.914 21.7922 181.76 19.2309 182.184C17.8572 182.408 16.4193 182.819 15.4885 183.853C14.5513 184.886 14.378 186.703 15.45 187.589C16.0919 188.115 16.9842 188.199 17.8122 188.186C19.815 188.16 22.0361 187.807 23.6409 189.014C24.5524 189.701 25.1623 190.843 26.2535 191.183C27.3191 191.517 28.5259 190.882 29.0908 189.919C29.6557 188.956 29.675 187.749 29.4118 186.664C29.4118 186.671 29.1358 184.302 26.812 183.102Z" fill="#52C3B0"/>
<path d="M32.0945 172.908C30.6822 174.924 27.9476 174.256 26.6766 173.024C25.4056 171.798 24.8664 170.013 24.3786 168.312C23.2616 164.428 22.1382 160.358 22.9663 156.404C23.2167 155.223 23.6596 154.042 24.4877 153.169C25.3158 152.29 26.5932 151.77 27.7615 152.078C29.1416 152.444 30.0018 153.798 30.6245 155.082C32.4475 158.863 33.4168 163.061 33.4297 167.259C33.4297 169.23 33.1986 171.284 32.0945 172.908Z" fill="#52C3B0"/>
<path d="M35.9638 175.796C34.4361 173.979 34.1408 171.328 34.8212 169.056C35.5017 166.777 37.0423 164.845 38.814 163.266C40.8938 161.411 43.3396 159.973 45.965 159.048C46.9985 158.682 48.0898 158.4 49.1811 158.503C50.2723 158.605 51.37 159.164 51.8771 160.133C52.6282 161.571 51.9092 163.311 51.1261 164.729C49.7524 167.233 48.1796 169.627 46.4272 171.88C45.0214 173.697 43.4037 175.488 41.2597 176.303C39.1157 177.125 36.8882 177.029 35.7456 175.539" fill="#52C3B0"/>
<path d="M32.1818 203.278C32.1562 203.278 32.1112 202.951 32.0535 202.36C31.9893 201.693 31.9058 200.858 31.8095 199.863C31.694 198.811 31.5399 197.565 31.2446 196.198C30.9558 194.837 30.5 193.367 29.9159 191.878C29.3125 190.395 28.5742 189.047 27.7077 187.968C26.8539 186.884 25.8525 186.1 24.9153 185.651C23.9845 185.189 23.1436 185.003 22.5659 184.919C21.9817 184.862 21.6543 184.81 21.6543 184.785C21.6543 184.759 21.9817 184.752 22.5787 184.772C23.1757 184.81 24.0423 184.964 25.0308 185.407C26.0194 185.844 27.0786 186.64 27.9772 187.75C28.8824 188.854 29.6462 190.228 30.2625 191.743C30.8595 193.264 31.3088 194.747 31.5848 196.134C31.8609 197.52 31.9893 198.785 32.0727 199.844C32.1497 200.903 32.1818 201.763 32.1947 202.354C32.2204 202.951 32.2075 203.278 32.1818 203.278Z" fill="#263238"/>
<path d="M32.0153 201.359C32.0024 201.359 31.996 201.211 31.9896 200.935C31.9896 200.614 31.9896 200.216 31.996 199.722C31.996 198.669 31.996 197.142 31.9447 195.261C31.8484 191.493 31.5274 187.442 30.8983 181.729C30.3078 176.356 29.5118 170.104 28.6709 166.04C28.4911 165.116 28.3114 164.282 28.138 163.556C27.9776 162.824 27.8363 162.195 27.7015 161.688C27.586 161.207 27.4897 160.815 27.4191 160.507C27.3613 160.237 27.3292 160.09 27.3421 160.09C27.3549 160.083 27.4062 160.225 27.4897 160.488C27.5796 160.796 27.7015 161.181 27.8428 161.65C27.9968 162.157 28.1573 162.779 28.3435 163.505C28.536 164.23 28.735 165.058 28.934 165.983C29.7621 169.667 30.648 174.816 31.2771 180.541C31.9062 186.267 32.1886 191.48 32.2143 195.254C32.2335 197.142 32.195 198.669 32.1501 199.722C32.118 200.216 32.0923 200.614 32.0731 200.935C32.041 201.211 32.0281 201.359 32.0153 201.359Z" fill="#263238"/>
<path d="M31.9899 191.306C31.9642 191.306 31.9707 190.856 31.9963 190.035C32.0413 189.219 32.1568 188.045 32.3815 186.6C32.6254 185.162 32.9657 183.448 33.4984 181.593C33.7295 180.746 34.2752 178.711 35.5911 175.668C37.3243 171.547 39.6866 168.183 41.7407 166.097C42.2222 165.545 42.755 165.147 43.1851 164.756C43.4097 164.569 43.6023 164.383 43.8013 164.236C44.0003 164.094 44.1865 163.966 44.3598 163.85C45.0338 163.388 45.4125 163.144 45.4254 163.17C45.4831 163.254 43.9104 164.178 41.9269 166.29C39.9498 168.402 37.6581 171.746 35.9313 175.829C34.9685 178.043 34.3009 180.021 33.8258 181.696C33.2738 183.538 32.9143 185.227 32.6383 186.652C32.3751 188.083 32.2274 189.245 32.1311 190.054C32.067 190.856 32.0156 191.306 31.9899 191.306Z" fill="#263238"/>
<path d="M41.7101 209.042L40.7022 222.843H22.9659L21.9581 209.042H41.7101Z" fill="#F05322"/>
<path d="M19.8396 203.599H43.4174V209.042H19.8396V203.599Z" fill="#F05322"/>
<path d="M43.4174 222.312V223.821H42.3133H20.2376V222.312H43.4174Z" fill="#F05322"/>
<path d="M41.2279 226.476L42.3127 223.818H21.0779L22.3425 226.476H41.2279Z" fill="#F05322"/>
<path d="M22.2901 213.549C22.2837 213.549 22.3158 213.594 22.3735 213.677C22.4442 213.773 22.534 213.889 22.6367 214.03C22.8871 214.351 23.2337 214.794 23.6702 215.352L23.7152 215.41L23.7601 215.346C24.4084 214.447 25.275 213.247 26.2957 211.835H26.148C26.9055 212.907 27.7464 214.094 28.6451 215.372L28.7221 215.481L28.812 215.378C29.7364 214.28 30.7378 213.093 31.7777 211.854H31.6044C31.6557 211.918 31.7135 211.989 31.7649 212.059C32.6828 213.208 33.5751 214.325 34.416 215.378L34.5059 215.487L34.5893 215.372C35.488 214.101 36.3289 212.907 37.0864 211.835L36.9388 211.841C38.1712 213.247 39.2176 214.434 40.02 215.346L40.0778 215.41L40.1163 215.34C40.5207 214.659 40.8481 214.114 41.0792 213.722C41.1819 213.549 41.2589 213.401 41.3295 213.292C41.3809 213.196 41.4066 213.138 41.4066 213.138C41.4001 213.138 41.368 213.183 41.3038 213.273C41.2332 213.382 41.1434 213.517 41.0278 213.69C40.7839 214.075 40.4437 214.608 40.0136 215.282L40.1099 215.275C39.3203 214.351 38.2932 213.144 37.08 211.726L37.003 211.636L36.9324 211.732C36.1685 212.804 35.3147 213.985 34.4096 215.256L34.5765 215.25C33.7356 214.191 32.8497 213.08 31.9318 211.925C31.874 211.854 31.8226 211.783 31.7713 211.719L31.6878 211.616L31.598 211.719C30.5581 212.958 29.5631 214.152 28.6451 215.25L28.812 215.256C27.9005 213.985 27.0531 212.798 26.2893 211.738L26.2122 211.636L26.1416 211.738C25.1402 213.163 24.2929 214.377 23.6574 215.288H23.7472C23.2915 214.743 22.932 214.313 22.6752 213.998C22.5597 213.863 22.4634 213.754 22.3864 213.664C22.3286 213.587 22.2901 213.549 22.2901 213.549Z" fill="#E0E0E0"/>
<path d="M21.7149 208.945C21.7149 209.009 26.157 209.054 31.6391 209.054C37.1211 209.054 41.5632 209.002 41.5632 208.945C41.5632 208.887 37.1211 208.836 31.6391 208.836C26.157 208.836 21.7149 208.887 21.7149 208.945Z" fill="#455A64"/>
<path d="M20.8107 223.972C20.8107 224.037 25.638 224.082 31.5951 224.082C37.5521 224.082 42.3794 224.03 42.3794 223.972C42.3794 223.915 37.5521 223.863 31.5951 223.863C25.6444 223.857 20.8107 223.908 20.8107 223.972Z" fill="#263238"/>
<path d="M195.733 179.516C195.785 179.574 196.189 179.336 196.638 178.97C197.088 178.611 197.415 178.271 197.364 178.206C197.312 178.149 196.908 178.393 196.459 178.752C196.009 179.111 195.688 179.452 195.733 179.516Z" fill="#263238"/>
<path d="M183.44 161.136C183.363 159.416 183.318 157.657 183.858 156.026C184.397 154.396 185.655 152.894 187.343 152.547C189.263 152.149 191.233 153.362 192.312 154.999C193.39 156.636 193.756 158.633 194.077 160.565C196.266 173.904 197.075 187.468 196.484 200.974L188.621 202.078C185.167 187.975 184.063 175.644 183.44 161.136Z" fill="#52C3B0"/>
<path d="M188.427 152.485C188.421 152.485 188.434 152.53 188.466 152.614C188.498 152.71 188.543 152.826 188.594 152.973C188.723 153.307 188.896 153.756 189.121 154.334C189.23 154.629 189.377 154.95 189.493 155.316C189.608 155.682 189.737 156.08 189.872 156.504C190.006 156.934 190.154 157.39 190.314 157.871C190.443 158.365 190.578 158.885 190.719 159.431C191.309 161.607 191.804 164.258 192.24 167.211C192.664 170.17 192.946 173.444 193.165 176.885C193.569 183.773 193.627 190.025 193.807 194.544C193.89 196.804 193.967 198.633 194.057 199.898C194.095 200.508 194.134 200.995 194.153 201.349C194.166 201.503 194.179 201.625 194.185 201.727C194.192 201.811 194.198 201.856 194.205 201.856C194.211 201.856 194.211 201.811 194.211 201.727C194.211 201.625 194.211 201.503 194.205 201.349C194.192 200.995 194.179 200.508 194.16 199.891C194.108 198.627 194.057 196.797 193.999 194.538C193.871 190.019 193.839 183.766 193.441 176.866C193.222 173.418 192.934 170.138 192.491 167.173C192.041 164.213 191.528 161.562 190.905 159.38C190.757 158.834 190.616 158.314 190.481 157.82C190.321 157.338 190.16 156.883 190.019 156.452C189.872 156.029 189.737 155.631 189.615 155.265C189.493 154.899 189.339 154.584 189.217 154.289C188.973 153.724 188.78 153.275 188.645 152.948C188.581 152.806 188.53 152.697 188.491 152.601C188.453 152.524 188.434 152.485 188.427 152.485Z" fill="#263238"/>
<path d="M187.701 152.492C187.701 152.492 187.22 152.986 186.738 154.116C186.244 155.239 185.936 157.024 186.019 159.2C186.231 163.546 186.616 169.528 187.136 176.14C187.656 182.752 188.234 188.722 188.696 193.042C188.927 195.199 189.126 196.945 189.274 198.152C189.351 198.736 189.409 199.198 189.454 199.538C189.473 199.679 189.492 199.801 189.505 199.898C189.518 199.981 189.531 200.02 189.531 200.02C189.537 200.02 189.537 199.975 189.531 199.898C189.524 199.801 189.518 199.679 189.505 199.532C189.473 199.192 189.434 198.723 189.377 198.139C189.261 196.906 189.088 195.16 188.882 193.016C188.471 188.696 187.926 182.72 187.406 176.108C186.892 169.503 186.469 163.514 186.212 159.187C186.103 157.024 186.372 155.271 186.835 154.148C187.284 153.031 187.733 152.511 187.701 152.492Z" fill="#263238"/>
<path d="M182.252 172.834C182.278 172.905 182.945 172.738 183.741 172.449C184.537 172.16 185.16 171.871 185.134 171.801C185.109 171.73 184.441 171.897 183.645 172.186C182.849 172.468 182.226 172.763 182.252 172.834Z" fill="#263238"/>
<path d="M181.3 164.823C181.268 164.893 181.904 165.246 182.719 165.612C183.534 165.978 184.221 166.216 184.253 166.145C184.285 166.074 183.65 165.721 182.835 165.355C182.019 164.989 181.332 164.752 181.3 164.823Z" fill="#263238"/>
<path d="M181.797 158.281C181.803 158.358 182.33 158.384 182.971 158.339C183.613 158.294 184.127 158.198 184.127 158.121C184.12 158.044 183.594 158.018 182.952 158.063C182.31 158.108 181.79 158.204 181.797 158.281Z" fill="#263238"/>
<path d="M189.909 154.097C189.973 154.135 190.32 153.711 190.679 153.14C191.039 152.569 191.276 152.075 191.212 152.03C191.148 151.991 190.801 152.415 190.442 152.986C190.076 153.557 189.839 154.052 189.909 154.097Z" fill="#263238"/>
<path d="M192.588 158.049C192.588 158.126 193.088 158.178 193.705 158.165C194.321 158.152 194.815 158.081 194.815 157.998C194.815 157.921 194.314 157.87 193.698 157.882C193.082 157.895 192.588 157.972 192.588 158.049Z" fill="#263238"/>
<path d="M194.514 165.959C194.546 166.029 195.066 165.888 195.689 165.638C196.312 165.387 196.787 165.124 196.761 165.054C196.729 164.983 196.209 165.124 195.586 165.375C194.964 165.625 194.488 165.888 194.514 165.959Z" fill="#263238"/>
<path d="M194.718 172.609C194.705 172.686 195.148 172.84 195.72 172.962C196.291 173.084 196.76 173.116 196.779 173.039C196.792 172.962 196.349 172.808 195.778 172.686C195.206 172.571 194.738 172.539 194.718 172.609Z" fill="#263238"/>
<path d="M195.622 183.496C195.609 183.573 196.084 183.721 196.681 183.83C197.284 183.939 197.779 183.965 197.791 183.888C197.804 183.811 197.329 183.663 196.732 183.554C196.135 183.445 195.635 183.419 195.622 183.496Z" fill="#263238"/>
<path d="M196.227 189.505C196.188 189.576 196.586 189.852 197.112 190.134C197.639 190.41 198.095 190.583 198.127 190.513C198.165 190.442 197.767 190.166 197.241 189.884C196.714 189.601 196.265 189.434 196.227 189.505Z" fill="#263238"/>
<path d="M191.319 196.323C191.383 196.361 191.73 195.886 192.09 195.257C192.449 194.628 192.687 194.089 192.616 194.05C192.552 194.012 192.205 194.487 191.846 195.116C191.486 195.745 191.249 196.284 191.319 196.323Z" fill="#263238"/>
<path d="M189.9 184.99C189.849 185.048 190.228 185.51 190.76 186.03C191.287 186.55 191.762 186.922 191.82 186.871C191.871 186.813 191.492 186.351 190.959 185.831C190.427 185.311 189.958 184.932 189.9 184.99Z" fill="#263238"/>
<path d="M190.218 179.04C190.276 179.091 190.629 178.802 191.014 178.385C191.4 177.974 191.663 177.596 191.605 177.538C191.547 177.487 191.194 177.775 190.809 178.193C190.424 178.61 190.161 178.989 190.218 179.04Z" fill="#263238"/>
<path d="M189.241 171.448C189.183 171.5 189.504 171.955 189.96 172.456C190.416 172.963 190.827 173.329 190.884 173.278C190.942 173.226 190.621 172.771 190.165 172.27C189.716 171.763 189.299 171.397 189.241 171.448Z" fill="#263238"/>
<path d="M188.693 165.934C188.744 165.991 189.193 165.638 189.694 165.15C190.195 164.663 190.554 164.22 190.496 164.162C190.445 164.104 189.996 164.457 189.495 164.945C189.001 165.439 188.641 165.882 188.693 165.934Z" fill="#263238"/>
<path d="M187.62 158.481C187.556 158.519 187.78 159.02 188.12 159.597C188.467 160.175 188.794 160.612 188.865 160.567C188.929 160.528 188.705 160.028 188.364 159.45C188.024 158.879 187.69 158.442 187.62 158.481Z" fill="#263238"/>
<path d="M185.594 151.573C185.524 151.611 185.723 152.112 186.037 152.69C186.352 153.268 186.66 153.711 186.73 153.672C186.801 153.634 186.602 153.133 186.287 152.555C185.973 151.977 185.665 151.541 185.594 151.573Z" fill="#263238"/>
<path d="M183.297 154.712C183.264 154.783 183.579 155.001 183.996 155.206C184.42 155.405 184.786 155.514 184.818 155.444C184.85 155.373 184.535 155.155 184.118 154.949C183.701 154.75 183.329 154.641 183.297 154.712Z" fill="#263238"/>
<path d="M183.246 179.515C183.259 179.586 183.971 179.489 184.786 179.143C185.595 178.796 186.16 178.353 186.122 178.289C186.077 178.218 185.46 178.552 184.677 178.886C183.888 179.22 183.227 179.438 183.246 179.515Z" fill="#263238"/>
<path d="M184.183 184.767C184.17 184.844 184.639 184.999 185.242 185.114C185.839 185.23 186.34 185.262 186.353 185.185C186.366 185.108 185.897 184.954 185.294 184.838C184.697 184.723 184.196 184.69 184.183 184.767Z" fill="#263238"/>
<path d="M185.338 193.771C185.382 193.829 185.986 193.418 186.531 192.718C187.084 192.025 187.347 191.344 187.283 191.312C187.212 191.274 186.846 191.871 186.313 192.545C185.78 193.219 185.28 193.713 185.338 193.771Z" fill="#263238"/>
<path d="M197.971 197.892C198.022 197.835 197.701 197.475 197.258 197.096C196.815 196.718 196.411 196.454 196.359 196.512C196.308 196.57 196.629 196.929 197.072 197.308C197.521 197.693 197.919 197.95 197.971 197.892Z" fill="#263238"/>
<path d="M201.605 178.238C202.118 176.639 203.075 174.778 204.756 174.752C205.751 174.739 206.65 175.452 207.112 176.331C207.581 177.211 207.78 178.231 207.748 179.226C207.555 185.8 206.419 193.317 204.14 200.166H198.003C198.087 192.553 199.287 185.479 201.605 178.238Z" fill="#52C3B0"/>
<path d="M212.705 168.18C213.566 164.746 216.12 162.897 219.093 162.724C221.808 163.199 222.861 165.869 223.182 168.604C223.503 171.338 222.655 174.06 221.814 176.685C219.118 185.107 216.429 193.529 213.732 201.958C211.19 201.682 208.642 201.399 206.1 201.123C208.52 189.838 209.907 179.375 212.705 168.18Z" fill="#52C3B0"/>
<path d="M204.752 174.753C204.727 174.772 205.003 175.029 205.272 175.619C205.535 176.216 205.664 177.166 205.561 178.334C205.439 179.503 205.311 180.909 205.112 182.443C204.913 183.983 204.637 185.672 204.29 187.437C203.597 190.961 202.814 194.126 202.319 196.43C202.069 197.586 201.876 198.517 201.761 199.165C201.71 199.46 201.665 199.711 201.633 199.916C201.607 200.089 201.594 200.179 201.607 200.179C201.62 200.179 201.645 200.096 201.69 199.929C201.742 199.73 201.799 199.486 201.87 199.191C202.031 198.504 202.249 197.592 202.518 196.475C203.064 194.184 203.879 191.025 204.573 187.488C204.919 185.723 205.189 184.022 205.375 182.475C205.471 181.698 205.535 180.96 205.6 180.267C205.657 179.58 205.728 178.938 205.767 178.341C205.85 177.16 205.689 176.171 205.381 175.568C205.067 174.977 204.752 174.753 204.752 174.753Z" fill="#263238"/>
<path d="M218.982 162.504C218.956 162.529 219.386 162.889 219.906 163.743C220.42 164.584 220.965 165.957 221.068 167.735C221.183 169.514 220.786 171.619 220.124 173.885C219.457 176.157 218.719 178.648 217.948 181.267C216.427 186.499 215.047 191.236 214.039 194.703C213.557 196.404 213.166 197.79 212.883 198.785C212.761 199.247 212.659 199.62 212.582 199.896C212.518 200.153 212.485 200.287 212.498 200.287C212.505 200.287 212.556 200.159 212.64 199.909C212.729 199.633 212.845 199.267 212.993 198.811C213.294 197.822 213.718 196.449 214.231 194.754C215.259 191.294 216.664 186.569 218.218 181.344C218.982 178.725 219.713 176.228 220.375 173.949C221.029 171.677 221.415 169.526 221.267 167.716C221.139 165.906 220.554 164.513 220.002 163.679C219.444 162.838 218.982 162.504 218.982 162.504Z" fill="#263238"/>
<path d="M207.77 200.309C207.777 200.315 207.841 200.187 207.944 199.943C208.046 199.699 208.207 199.339 208.38 198.871C208.746 197.934 209.208 196.554 209.696 194.814C210.184 193.081 210.659 190.988 211.121 188.658C211.564 186.321 212.052 183.754 212.559 181.064C213.092 178.374 213.682 175.832 214.369 173.56C215.056 171.287 215.82 169.291 216.597 167.673C217.367 166.056 218.105 164.804 218.657 163.963C218.921 163.533 219.158 163.225 219.299 163C219.447 162.782 219.518 162.66 219.511 162.654C219.505 162.647 219.415 162.756 219.254 162.962C219.1 163.174 218.844 163.475 218.568 163.892C217.983 164.714 217.219 165.959 216.423 167.577C215.621 169.195 214.832 171.191 214.132 173.47C213.426 175.749 212.829 178.297 212.296 180.993C211.795 183.689 211.314 186.257 210.877 188.594C210.428 190.924 209.979 193.017 209.516 194.75C209.061 196.483 208.624 197.869 208.29 198.82C208.136 199.295 207.989 199.66 207.905 199.911C207.802 200.168 207.758 200.302 207.77 200.309Z" fill="#263238"/>
<path d="M221.681 175.426C221.661 175.504 222.079 175.67 222.611 175.799C223.144 175.927 223.587 175.972 223.606 175.895C223.626 175.818 223.208 175.651 222.676 175.523C222.143 175.394 221.7 175.349 221.681 175.426Z" fill="#263238"/>
<path d="M222.489 170.215C222.495 170.292 223.073 170.324 223.779 170.356C224.485 170.382 225.063 170.394 225.076 170.317C225.089 170.24 224.511 170.099 223.792 170.073C223.067 170.041 222.483 170.138 222.489 170.215Z" fill="#263238"/>
<path d="M221.628 165.453C221.679 165.51 222.09 165.241 222.552 164.849C223.015 164.458 223.348 164.092 223.297 164.034C223.246 163.976 222.835 164.246 222.373 164.637C221.91 165.029 221.577 165.395 221.628 165.453Z" fill="#263238"/>
<path d="M219.294 161.047C219.217 161.066 219.236 161.439 219.249 161.882C219.262 162.331 219.262 162.703 219.339 162.716C219.416 162.729 219.544 162.357 219.525 161.875C219.519 161.394 219.371 161.028 219.294 161.047Z" fill="#263238"/>
<path d="M214.542 163.122C214.478 163.166 214.664 163.545 214.959 163.962C215.254 164.38 215.543 164.688 215.608 164.643C215.672 164.598 215.486 164.219 215.19 163.802C214.895 163.385 214.606 163.077 214.542 163.122Z" fill="#263238"/>
<path d="M211.454 168.486C211.422 168.556 211.82 168.787 212.34 168.999C212.86 169.211 213.302 169.32 213.328 169.25C213.36 169.179 212.962 168.948 212.442 168.736C211.922 168.531 211.479 168.415 211.454 168.486Z" fill="#263238"/>
<path d="M209.579 174.009C209.547 174.079 210.073 174.375 210.792 174.535C211.511 174.702 212.108 174.657 212.115 174.58C212.121 174.503 211.543 174.42 210.856 174.259C210.163 174.112 209.611 173.938 209.579 174.009Z" fill="#263238"/>
<path d="M218.178 172.443C218.255 172.417 218.197 172.039 218.056 171.589C217.915 171.14 217.742 170.8 217.671 170.819C217.594 170.845 217.652 171.223 217.793 171.673C217.928 172.122 218.101 172.469 218.178 172.443Z" fill="#263238"/>
<path d="M216.979 179.375C217.05 179.343 216.896 178.829 216.633 178.226C216.37 177.622 216.1 177.16 216.029 177.192C215.959 177.224 216.113 177.738 216.376 178.341C216.639 178.945 216.909 179.407 216.979 179.375Z" fill="#263238"/>
<path d="M219.947 181.275C219.979 181.345 220.46 181.217 221.044 181.031C221.628 180.845 222.103 180.678 222.084 180.601C222.071 180.524 221.558 180.575 220.961 180.761C220.364 180.947 219.914 181.204 219.947 181.275Z" fill="#263238"/>
<path d="M218.239 186.923C218.194 186.988 218.521 187.296 218.97 187.617C219.42 187.938 219.818 188.143 219.863 188.079C219.908 188.015 219.58 187.707 219.131 187.386C218.682 187.071 218.284 186.859 218.239 186.923Z" fill="#263238"/>
<path d="M216.864 192.559C216.844 192.636 217.249 192.797 217.769 192.925C218.289 193.053 218.719 193.092 218.738 193.015C218.757 192.938 218.353 192.777 217.833 192.649C217.319 192.521 216.883 192.482 216.864 192.559Z" fill="#263238"/>
<path d="M209.424 178.72C209.386 178.784 209.733 179.06 210.233 179.253C210.734 179.446 211.177 179.465 211.19 179.388C211.203 179.311 210.811 179.17 210.33 178.99C209.855 178.804 209.463 178.65 209.424 178.72Z" fill="#263238"/>
<path d="M208.366 187.482C208.398 187.552 208.809 187.43 209.284 187.206C209.759 186.981 210.118 186.743 210.086 186.673C210.054 186.602 209.643 186.724 209.168 186.949C208.687 187.173 208.327 187.411 208.366 187.482Z" fill="#263238"/>
<path d="M206.482 193.76C206.508 193.831 207.054 193.69 207.696 193.433C208.338 193.183 208.838 192.92 208.806 192.849C208.78 192.778 208.235 192.92 207.593 193.176C206.957 193.42 206.457 193.683 206.482 193.76Z" fill="#263238"/>
<path d="M216.563 198.669C216.601 198.599 216.1 198.265 215.523 197.803C214.945 197.347 214.496 196.943 214.438 196.994C214.38 197.045 214.746 197.552 215.349 198.021C215.953 198.502 216.531 198.74 216.563 198.669Z" fill="#263238"/>
<path d="M211.608 195.481C211.685 195.488 211.794 195.07 211.987 194.582C212.173 194.088 212.378 193.709 212.314 193.658C212.256 193.613 211.929 193.947 211.723 194.48C211.518 195.006 211.531 195.475 211.608 195.481Z" fill="#263238"/>
<path d="M212.917 187.937C212.962 188.001 213.283 187.847 213.629 187.597C213.982 187.346 214.226 187.09 214.181 187.025C214.136 186.961 213.815 187.115 213.469 187.366C213.122 187.616 212.872 187.873 212.917 187.937Z" fill="#263238"/>
<path d="M201.357 176.114C201.312 176.178 201.621 176.486 202.057 176.8C202.487 177.121 202.872 177.327 202.924 177.263C202.969 177.198 202.661 176.89 202.224 176.576C201.794 176.261 201.402 176.049 201.357 176.114Z" fill="#263238"/>
<path d="M199.614 180.875C199.608 180.952 200.096 181.055 200.699 180.984C201.303 180.92 201.758 180.714 201.739 180.644C201.713 180.567 201.245 180.644 200.674 180.708C200.096 180.772 199.621 180.798 199.614 180.875Z" fill="#263238"/>
<path d="M207.104 181.95C207.084 182.027 207.54 182.187 208.124 182.226C208.708 182.264 209.177 182.168 209.171 182.091C209.164 182.014 208.702 181.988 208.144 181.95C207.579 181.905 207.116 181.873 207.104 181.95Z" fill="#263238"/>
<path d="M206.461 177.443C206.467 177.52 206.923 177.526 207.424 177.295C207.925 177.064 208.214 176.711 208.162 176.66C208.111 176.602 207.764 176.833 207.308 177.038C206.853 177.257 206.455 177.366 206.461 177.443Z" fill="#263238"/>
<path d="M198.975 185.992C199.014 186.056 199.482 185.838 200.022 185.498C200.561 185.157 200.959 184.836 200.92 184.766C200.882 184.702 200.413 184.92 199.874 185.26C199.335 185.6 198.93 185.928 198.975 185.992Z" fill="#263238"/>
<path d="M180.695 199.358H220.655V206.438H180.695V199.358Z" fill="#F05322"/>
<path d="M217.67 205.04L212.811 226.204H188.995L183.674 205.04H217.67Z" fill="#F05322"/>
<path d="M180.716 206.45C180.716 206.527 189.728 206.591 200.846 206.591C211.965 206.591 220.977 206.527 220.977 206.45C220.977 206.373 211.965 206.309 200.846 206.309C189.728 206.309 180.716 206.373 180.716 206.45Z" fill="#263238"/>
<path d="M202.941 182.104C203.006 182.143 203.282 181.828 203.551 181.392C203.821 180.955 203.988 180.57 203.923 180.532C203.859 180.493 203.583 180.808 203.314 181.244C203.044 181.674 202.877 182.06 202.941 182.104Z" fill="#263238"/>
<path d="M202.93 187.799C203 187.773 202.91 187.292 202.718 186.721C202.532 186.149 202.313 185.706 202.243 185.732C202.172 185.758 202.262 186.239 202.455 186.81C202.641 187.382 202.853 187.825 202.93 187.799Z" fill="#263238"/>
<path d="M200.975 193.777C201.046 193.809 201.341 193.334 201.643 192.712C201.938 192.089 202.124 191.556 202.054 191.524C201.983 191.492 201.688 191.967 201.386 192.59C201.091 193.212 200.905 193.745 200.975 193.777Z" fill="#263238"/>
<path d="M205.197 198.592C205.255 198.541 205.017 198.169 204.664 197.764C204.311 197.36 203.977 197.071 203.919 197.122C203.862 197.174 204.099 197.546 204.452 197.95C204.805 198.355 205.139 198.644 205.197 198.592Z" fill="#263238"/>
<path d="M206.082 189.86C206.095 189.937 206.48 189.93 206.942 189.853C207.404 189.77 207.764 189.641 207.751 189.571C207.738 189.494 207.353 189.5 206.891 189.577C206.435 189.654 206.069 189.782 206.082 189.86Z" fill="#263238"/>
<path d="M67.0561 150.077H161.817V225.644H67.0561V150.077Z" fill="#455A64"/>
<g opacity="0.3">
<g opacity="0.3">
<path opacity="0.3" d="M154.916 150.228C143.76 154.208 131.454 155.056 119.482 155.28C117.004 155.325 114.494 155.325 112.094 155.948C109.693 156.571 107.369 157.919 106.136 160.069C104.795 162.412 104.936 165.346 105.7 167.933C106.464 170.52 107.78 172.907 108.736 175.437C110.412 179.866 110.932 184.732 110.232 189.411C109.937 191.401 109.404 193.404 108.255 195.06C107.106 196.71 105.251 197.968 103.235 198C99.6338 198.052 97.1688 194.515 95.3843 191.382C88.0599 178.55 80.1386 163.965 75.4526 149.959L154.916 150.228Z" fill="black"/>
</g>
</g>
<path d="M129.528 225.237C129.618 225.237 129.695 208.489 129.695 187.832C129.695 167.169 129.618 150.421 129.528 150.421C129.438 150.421 129.361 167.169 129.361 187.832C129.361 208.489 129.438 225.237 129.528 225.237Z" fill="#455A64"/>
<path d="M90.7017 94.2289C90.9842 92.348 96.6138 86.115 96.6138 86.115C96.6138 86.115 99.4319 74.8107 100.273 71.4791C100.485 70.6446 100.934 69.701 101.499 68.751C103.463 65.4194 106.345 62.7169 109.722 60.8168L117.515 56.4325L119.383 52.2856L138.108 42.6632L143.185 51.618C143.185 51.618 155.517 55.5402 157.147 58.339C158.778 61.1378 156.338 98.6517 156.338 98.6517C156.338 98.6517 161.499 120.297 162.591 124.778C163.676 129.259 162.238 134.599 162.238 134.599L153.052 123.07C150.195 119.489 143.93 117.845 139.43 117.909L100.972 118.076L102.5 107.305L71.4055 113.352C71.4055 113.352 66.0519 102.921 65.6346 102.709C65.2174 102.503 90.7017 94.2289 90.7017 94.2289Z" fill="#F05322"/>
<path d="M138.912 55.1422C139.182 54.8662 136.736 63.1213 133.674 71.5241C132.024 76.0497 131.196 80.8513 131.196 85.6914V104.192V116.119L112.754 114.867L115.507 94.8259C115.507 94.8259 117.754 81.8976 118.383 76.9805C118.961 72.4806 120.938 60.2712 120.938 60.2712C120.938 60.2712 131.19 63.0058 138.912 55.1422Z" fill="white"/>
<path d="M97.9894 101.791C98.0087 101.791 98.0151 101.624 97.9894 101.329C97.9638 101.033 97.8932 100.603 97.7455 100.09C97.4631 99.0628 96.8019 97.6826 95.64 96.5143C94.4717 95.346 93.0916 94.6849 92.0645 94.396C91.5509 94.2484 91.1209 94.1777 90.8256 94.1521C90.5303 94.1264 90.3634 94.1328 90.3634 94.1521C90.357 94.2098 91.0117 94.2805 91.9939 94.6207C92.976 94.9545 94.2855 95.6221 95.4025 96.7454C96.5194 97.8688 97.187 99.1783 97.5208 100.16C97.8611 101.143 97.9317 101.797 97.9894 101.791Z" fill="#263238"/>
<path d="M97.0432 94.4843C97.0817 94.4137 95.8749 93.7975 94.2252 93.6691C92.5818 93.5278 91.2852 93.9323 91.3173 94.0157C91.3365 94.1184 92.6204 93.8681 94.1995 94.0029C95.785 94.1248 97.0047 94.5806 97.0432 94.4843Z" fill="#263238"/>
<g opacity="0.3">
<g opacity="0.3">
<path opacity="0.3" d="M158.196 111.094L159.794 112.91C158.08 114.907 155.853 116.576 153.298 117.205C150.743 117.834 148.092 117.904 145.46 117.917C144.394 117.917 143.316 117.911 142.289 117.615C141.249 117.314 140.273 116.723 139.188 116.659C138.463 116.614 137.75 116.813 137.038 116.967C136.325 117.121 135.574 117.224 134.881 116.999C134.188 116.775 133.584 116.133 133.629 115.407C141.628 113.071 149.883 111.62 158.196 111.094Z" fill="black"/>
</g>
</g>
<path d="M105.553 113.416L110.079 108.608L119.386 106.252C119.386 106.252 127.918 108.807 128.117 108.801C128.322 108.794 135.537 106.83 135.537 106.83L138.06 116.08L125.061 116.972L110.22 116.375C110.22 116.375 109.443 115.656 109.905 115.162C110.361 114.668 107.421 115.996 107.074 116.009C106.734 116.022 106.054 116.292 105.598 115.74C105.283 115.367 104.86 114.154 105.553 113.416Z" fill="#FFBE9D"/>
<path d="M109.908 115.168C109.927 115.213 110.485 115.033 111.384 114.745C112.289 114.456 113.535 114.077 114.928 113.718C116.327 113.358 117.604 113.095 118.529 112.909C119.459 112.723 120.031 112.607 120.024 112.562C120.018 112.517 119.427 112.549 118.49 112.678C117.547 112.806 116.25 113.037 114.844 113.397C113.438 113.756 112.187 114.18 111.301 114.526C110.421 114.867 109.888 115.13 109.908 115.168Z" fill="#EB996E"/>
<path d="M105.558 113.416C105.577 113.461 106.354 113.172 107.625 112.748C108.89 112.318 110.661 111.798 112.632 111.246C114.596 110.662 116.349 110.078 117.677 110.001C119 109.892 119.809 110.148 119.821 110.084C119.828 110.065 119.635 109.988 119.263 109.898C118.897 109.808 118.345 109.744 117.665 109.763C116.291 109.782 114.487 110.347 112.542 110.925C110.571 111.477 108.8 112.036 107.548 112.523C106.919 112.761 106.418 112.979 106.078 113.133C105.731 113.294 105.552 113.396 105.558 113.416Z" fill="#EB996E"/>
<path d="M157.152 58.3412C157.152 58.3412 163.86 63.008 165.49 69.7225C167.121 76.4434 174.195 103.873 172.744 107.981C171.293 112.089 143.081 116.114 143.081 116.114L139.736 102.011L154.064 98.0891C154.064 98.0891 153.884 85.0259 153.698 79.6145C153.512 74.2031 157.152 58.3412 157.152 58.3412Z" fill="#F05322"/>
<path d="M139.927 104.114L135.312 105.25L138.091 115.893L142.623 115.168L139.927 104.114Z" fill="white"/>
<path d="M172.854 106.527C172.828 106.527 172.867 106.764 172.783 107.194C172.694 107.618 172.418 108.234 171.801 108.793C170.575 109.935 168.232 110.885 165.267 111.418H165.254L165.241 111.425C163.886 111.868 162.339 112.227 160.683 112.599C159.027 112.972 157.249 113.35 155.375 113.729C151.619 114.499 147.466 115.302 143.069 116.13L143.261 116.252C142.94 114.942 142.607 113.562 142.266 112.156C141.477 108.921 140.707 105.782 139.981 102.81L139.866 103.003C144.603 101.648 148.93 100.416 152.595 99.3693H152.601H152.608C154.553 98.5733 156.485 98.2845 158.16 98.3936C159.842 98.4706 161.255 98.92 162.352 99.3757C163.45 99.8443 164.233 100.358 164.759 100.711C165.003 100.891 165.196 101.025 165.344 101.135C165.478 101.231 165.549 101.276 165.549 101.269C165.555 101.263 165.491 101.205 165.369 101.103C165.241 101 165.061 100.839 164.804 100.647C164.291 100.274 163.514 99.7352 162.41 99.2409C161.312 98.7595 159.887 98.278 158.173 98.1818C156.472 98.047 154.495 98.323 152.505 99.119L152.518 99.1126C148.84 100.146 144.513 101.359 139.769 102.688L139.622 102.733L139.66 102.887C140.386 105.859 141.15 108.998 141.933 112.233C142.273 113.633 142.613 115.019 142.934 116.329L142.973 116.483L143.127 116.451C147.53 115.623 151.683 114.801 155.432 114.018C157.307 113.626 159.085 113.235 160.741 112.856C162.397 112.471 163.931 112.105 165.311 111.636L165.292 111.643C168.296 111.072 170.639 110.083 171.878 108.883C172.501 108.292 172.764 107.644 172.841 107.201C172.912 106.758 172.854 106.527 172.854 106.527Z" fill="#263238"/>
<path d="M153.294 99.022C153.332 99.0669 153.814 98.624 154.674 98.0462C155.534 97.4685 156.805 96.7881 158.314 96.3451C159.829 95.9086 161.266 95.7995 162.3 95.8252C163.333 95.8509 163.975 95.96 163.982 95.9086C163.988 95.8765 163.366 95.6775 162.306 95.5941C161.254 95.5042 159.771 95.5812 158.217 96.0306C156.664 96.4863 155.374 97.2181 154.533 97.8601C153.692 98.4956 153.268 98.9963 153.294 99.022Z" fill="#263238"/>
<path d="M151.409 76.0446C151.383 76.0446 151.383 76.3527 151.402 76.9047C151.415 77.4568 151.46 78.2592 151.537 79.2413C151.697 81.212 151.986 83.9338 152.506 86.9059C153.013 89.8844 153.662 92.5484 154.284 94.4292C154.445 94.8978 154.605 95.3215 154.74 95.6874C154.894 96.0341 155.029 96.3422 155.151 96.6118C155.414 97.0996 155.568 97.3628 155.587 97.3564C155.607 97.3436 155.491 97.0611 155.267 96.5604C155.164 96.2844 155.042 95.9699 154.913 95.6232C154.791 95.2509 154.65 94.8337 154.509 94.3586C153.944 92.4714 153.341 89.8138 152.834 86.8481C152.32 83.8824 151.993 81.1799 151.774 79.2157C151.678 78.2849 151.595 77.5081 151.531 76.8919C151.479 76.3463 151.434 76.0446 151.409 76.0446Z" fill="#263238"/>
<path d="M135.057 68.7701C135.077 68.7766 135.122 68.5968 135.282 68.2951C135.443 67.9998 135.725 67.5826 136.245 67.2424C136.752 66.9086 137.529 66.6646 138.331 66.9342C139.121 67.191 139.898 67.9292 140.09 68.9306L140.18 69.3864L140.379 68.9627C141.053 67.5056 141.746 65.8301 142.343 64.0071C143.428 60.7012 143.897 57.5365 143.794 55.2512C143.794 54.6799 143.717 54.1664 143.678 53.717C143.601 53.2677 143.544 52.8825 143.473 52.5744C143.313 51.9582 143.21 51.6179 143.191 51.6244C143.107 51.6372 143.569 52.9917 143.557 55.2576C143.595 57.5108 143.101 60.6305 142.022 63.9044C141.432 65.7082 140.758 67.3836 140.103 68.8343L140.392 68.8664C140.154 67.7431 139.281 66.9535 138.408 66.6903C137.51 66.4143 136.662 66.7031 136.142 67.0883C135.603 67.4735 135.327 67.9356 135.192 68.2502C135.128 68.4107 135.083 68.539 135.07 68.6289C135.051 68.7188 135.045 68.7637 135.057 68.7701Z" fill="#263238"/>
<path d="M119.405 70.2133C119.424 70.2133 119.469 69.9437 119.552 69.4494C119.623 68.9552 119.784 68.2298 119.687 67.299C119.559 66.3875 119.129 65.2769 118.14 64.4553C117.652 64.0509 116.985 63.7813 116.272 63.7877C115.573 63.7877 114.809 64.0573 114.308 64.6671L114.59 64.8276C114.783 64.3333 114.988 63.8198 115.2 63.2934C116.401 60.2699 117.466 57.5225 118.217 55.5325C118.57 54.5825 118.866 53.7865 119.097 53.1703C119.296 52.6118 119.398 52.2972 119.379 52.2844C119.36 52.278 119.219 52.5733 118.975 53.1189C118.718 53.7287 118.391 54.5119 117.999 55.4491C117.184 57.4198 116.086 60.148 114.886 63.1778C114.68 63.7042 114.475 64.2178 114.282 64.712L113.891 65.7006L114.565 64.8725C114.982 64.359 115.65 64.1086 116.272 64.1022C116.908 64.0958 117.498 64.3205 117.954 64.6864C118.872 65.4182 119.321 66.4773 119.463 67.3311C119.585 68.2105 119.456 68.9423 119.424 69.4366C119.386 69.9373 119.379 70.2133 119.405 70.2133Z" fill="#263238"/>
<path d="M107.497 71.8069C107.407 71.7941 105.956 81.5513 104.255 93.6002C102.554 105.656 101.257 115.432 101.347 115.445C101.437 115.458 102.888 105.7 104.589 93.6451C106.284 81.6026 107.587 71.8197 107.497 71.8069Z" fill="#263238"/>
<g opacity="0.3">
<g opacity="0.3">
<path opacity="0.3" d="M142.144 64.1086C142.067 66.5993 141.522 69.0771 140.546 71.3559C139.846 70.4958 139.07 69.5778 138.01 69.3275C136.682 69.0129 135.346 69.8282 134.384 70.8231C134.589 69.8282 134.923 68.8396 135.539 68.0565C136.155 67.2669 137.099 66.702 138.081 66.7277C139.07 66.7534 140.045 67.4787 140.225 68.4737L142.067 64.1536" fill="black"/>
</g>
</g>
<path d="M152.984 71.1637C153.048 71.1637 153.023 70.4897 153.222 69.4433C153.414 68.397 153.883 66.9783 154.782 65.6239C155.237 64.9498 155.744 64.3721 156.252 63.8778C156.772 63.4028 157.266 63.0112 157.722 62.7352C158.62 62.1639 159.256 61.9456 159.237 61.8879C159.23 61.8686 159.07 61.9071 158.774 62.0034C158.627 62.0483 158.453 62.1125 158.254 62.2024C158.055 62.2923 157.831 62.3886 157.593 62.5298C157.112 62.7866 156.579 63.1781 156.033 63.6532C155.501 64.1474 154.968 64.7444 154.499 65.4377C153.568 66.8371 153.119 68.32 152.984 69.4048C152.914 69.944 152.894 70.3869 152.92 70.6951C152.939 70.9968 152.958 71.1637 152.984 71.1637Z" fill="#263238"/>
<path d="M115.719 25.355C116.476 18.2296 122.587 12.8824 129.751 13.0686L130.464 13.0878C138.128 13.7362 141.864 20.6047 141.004 28.2501L138.899 55.1402L138.006 56.2315C133.885 61.2899 126.875 62.946 120.925 60.2564L121.515 51.6032C121.515 51.6032 114.165 50.268 114.262 42.8859C114.319 39.3168 115.013 31.986 115.719 25.355Z" fill="#FFBE9D"/>
<path d="M121.47 51.5984C121.47 51.5984 126.175 52.0028 131.214 49.0178C131.214 49.0178 128.801 54.2688 121.457 53.415L121.47 51.5984Z" fill="#EB996E"/>
<path d="M118.059 31.4618C118.027 32.0203 118.47 32.5081 119.047 32.553C119.625 32.598 120.126 32.1872 120.158 31.6287C120.19 31.0702 119.747 30.5824 119.169 30.5374C118.592 30.4925 118.091 30.9033 118.059 31.4618Z" fill="#263238"/>
<path d="M117.588 27.4496C117.672 27.5779 118.506 27.6678 119.508 28.207C120.509 28.7398 121.106 29.4203 121.247 29.4074C121.311 29.4074 121.254 29.2213 120.997 28.9196C120.74 28.6243 120.265 28.207 119.642 27.8732C119.02 27.5394 118.436 27.3854 118.076 27.3533C117.704 27.3212 117.543 27.3854 117.588 27.4496Z" fill="#263238"/>
<path d="M128.713 32.0199C128.681 32.5784 129.124 33.0662 129.702 33.1112C130.279 33.1561 130.78 32.7453 130.812 32.1868C130.844 31.6283 130.401 31.1405 129.824 31.0955C129.246 31.0506 128.745 31.4614 128.713 32.0199Z" fill="#263238"/>
<path d="M128.872 28.9953C129.02 29.0274 129.707 28.5652 130.805 28.2892C131.902 28.0132 132.795 28.0838 132.897 27.9875C132.949 27.9426 132.782 27.8591 132.39 27.827C132.005 27.7885 131.376 27.8206 130.689 27.9875C130.002 28.1608 129.469 28.424 129.174 28.6294C128.879 28.8413 128.802 28.9825 128.872 28.9953Z" fill="#263238"/>
<path d="M124.425 37.8115C124.431 37.7473 123.731 37.606 122.589 37.4327C122.3 37.3942 122.03 37.33 121.985 37.131C121.921 36.9192 122.05 36.6111 122.204 36.2773C122.493 35.584 122.801 34.8586 123.115 34.0947C124.386 30.9878 125.311 28.4265 125.189 28.3752C125.06 28.3238 123.93 30.8016 122.659 33.915C122.351 34.6789 122.062 35.4107 121.78 36.1104C121.665 36.4377 121.466 36.8036 121.6 37.2401C121.671 37.4584 121.883 37.6189 122.063 37.6767C122.249 37.7408 122.409 37.7473 122.55 37.7601C123.706 37.8564 124.418 37.8757 124.425 37.8115Z" fill="#263238"/>
<path d="M128.853 24.6164C128.981 24.9181 130.105 24.7191 131.44 24.8154C132.781 24.886 133.873 25.2198 134.033 24.9373C134.104 24.8025 133.905 24.5201 133.455 24.2441C133.012 23.968 132.313 23.7177 131.51 23.6663C130.708 23.615 129.983 23.7819 129.508 24.0001C129.033 24.2184 128.801 24.4687 128.853 24.6164Z" fill="#263238"/>
<path d="M117.615 24.8669C117.859 25.1301 118.841 24.8669 120.009 24.8669C121.184 24.8348 122.172 25.0595 122.403 24.7963C122.506 24.6679 122.352 24.4047 121.922 24.1608C121.498 23.9104 120.786 23.705 119.977 23.7179C119.175 23.7307 118.468 23.9554 118.064 24.2186C117.647 24.4753 117.506 24.7385 117.615 24.8669Z" fill="#263238"/>
<path d="M113.568 18.8275C113.71 18.1599 114.371 17.5886 115.045 17.6913C114.685 17.5629 114.313 17.4281 114.024 17.1713C113.735 16.9146 113.555 16.5037 113.677 16.1443C113.864 15.5729 114.595 15.4574 115.173 15.2905C115.931 15.0787 116.611 14.6229 117.099 14.0066C117.799 13.1208 118.068 11.9653 118.678 11.0153C119.461 9.78279 120.828 8.92903 122.279 8.76855C123.736 8.60807 125.251 9.14087 126.285 10.1744C127.415 9.01891 129.116 8.4476 130.714 8.69153C132.312 8.93546 133.763 9.98821 134.495 11.4261C136.453 10.6109 138.841 10.9447 140.503 12.2735C142.16 13.5958 143.013 15.8554 142.654 17.9481L138.058 20.7661C137.981 19.3474 136.395 18.2177 135.028 18.6092C133.641 19.0072 132.755 20.6185 131.311 20.7276C130.188 20.811 129.238 19.9444 128.146 19.6556C126.83 19.3025 125.437 19.8289 124.25 20.5029C123.062 21.1705 121.933 22.005 120.61 22.3388C119.057 22.7304 117.407 22.3902 115.924 21.7803C115.289 21.5236 114.66 21.2026 114.191 20.7083C113.722 20.2012 113.427 19.4951 113.568 18.8275Z" fill="#263238"/>
<path d="M137.263 18.5901L116.207 18.4682C116.901 17.0367 118.101 15.9069 119.398 14.9761C122.19 12.9797 125.586 11.7793 129.02 11.8114C132.455 11.8435 139.323 16.2214 141.743 18.6543C143.682 20.6058 143.624 22.2427 143.624 22.2427C143.862 24.9773 142.25 28.0392 141.57 30.6968C141.217 32.0705 140.498 36.2302 140.498 36.2302C139.336 36.1917 138.932 35.2609 139.143 34.1182L139.484 29.6248C139.484 29.6248 135.619 26.7105 137.628 21.6393C137.937 21.2477 138.63 19.3925 137.263 18.5901Z" fill="#263238"/>
<path d="M139.805 29.3365C140.877 25.6069 141.86 21.6142 140.723 17.9038C140.929 17.8974 141.141 17.8846 141.346 17.8782L141.609 18.0708C142.784 17.6728 144.196 18.1221 144.928 19.1299C145.66 20.1313 145.653 21.6142 144.921 22.6156C146.167 22.5578 147.367 23.5977 147.476 24.843C147.553 25.7032 147.181 26.5313 146.796 27.3016C146.411 28.0719 146 28.8743 145.994 29.7345C145.987 30.5947 146.539 31.5319 147.393 31.6346C147.008 32.5204 145.942 33.0404 145.011 32.7901C145.307 33.5218 145.814 34.1573 146.456 34.6131C145.082 35.5439 143.201 35.2294 141.712 34.504C140.826 34.0739 139.959 33.4577 139.6 32.5461C139.202 31.5255 139.51 30.3893 139.805 29.3365Z" fill="#263238"/>
<path d="M140.152 33.6815C140.28 33.6301 145.262 32.3142 144.973 37.3533C144.684 42.3924 139.683 41.0636 139.677 40.9159C139.677 40.7747 140.152 33.6815 140.152 33.6815Z" fill="#FFBE9D"/>
<path d="M140.883 39.0864C140.909 39.0736 140.967 39.1506 141.114 39.2276C141.256 39.3047 141.5 39.3624 141.769 39.279C142.315 39.1121 142.809 38.2968 142.886 37.3853C142.925 36.9295 142.854 36.4866 142.713 36.1143C142.578 35.7356 142.36 35.466 142.09 35.4018C141.827 35.3247 141.628 35.4724 141.557 35.6136C141.48 35.7484 141.506 35.8511 141.48 35.8575C141.467 35.8704 141.378 35.7677 141.429 35.5622C141.455 35.466 141.519 35.3504 141.647 35.2605C141.776 35.1707 141.955 35.1322 142.142 35.1578C142.527 35.2092 142.86 35.5879 143.015 35.9923C143.194 36.4032 143.284 36.9039 143.239 37.4174C143.149 38.4316 142.572 39.3496 141.833 39.5229C141.474 39.5935 141.185 39.4716 141.037 39.3432C140.883 39.2084 140.864 39.0928 140.883 39.0864Z" fill="#EB996E"/>
<path d="M145.384 29.503C145.396 29.5158 145.525 29.3104 145.473 28.9188C145.429 28.5337 145.146 27.9752 144.53 27.6029C143.92 27.2305 143.079 27.1407 142.219 27.0444C141.372 26.9545 140.402 26.7106 139.914 25.8761C139.427 25.0608 139.414 24.0659 139.523 23.2314C139.645 22.384 139.87 21.6137 139.979 20.9525C140.248 19.6173 139.991 18.7636 139.947 18.7893C139.889 18.7957 140.036 19.6173 139.709 20.8948C139.568 21.5367 139.317 22.2877 139.17 23.18C139.048 24.0594 139.029 25.125 139.587 26.0815C139.87 26.5501 140.312 26.9096 140.787 27.0957C141.262 27.2883 141.737 27.3525 142.18 27.4039C143.06 27.4809 143.837 27.5451 144.395 27.8468C144.947 28.1357 145.236 28.6107 145.319 28.9445C145.416 29.2847 145.352 29.4965 145.384 29.503Z" fill="#455A64"/>
<path d="M146.606 27.3002C146.625 27.3066 146.715 27.159 146.76 26.8445C146.798 26.5363 146.779 26.0549 146.509 25.5478C146.374 25.2974 146.182 25.0406 145.912 24.8288C145.649 24.6106 145.29 24.4693 144.943 24.3795C144.603 24.2767 144.243 24.1933 143.986 23.9879C143.73 23.7825 143.614 23.4487 143.608 23.0635C143.595 22.6784 143.653 22.274 143.64 21.8695C143.633 21.4715 143.588 21.0864 143.511 20.7269C143.357 20.008 143.094 19.3981 142.786 18.9231C142.484 18.4352 141.996 18.1977 141.669 18.2106C141.335 18.2106 141.194 18.3646 141.213 18.3775C141.226 18.4096 141.38 18.3197 141.663 18.3646C141.945 18.3967 142.305 18.615 142.555 19.0708C142.805 19.5201 143.03 20.1171 143.158 20.7975C143.223 21.1377 143.255 21.4972 143.255 21.876C143.261 22.2483 143.197 22.6398 143.21 23.0828C143.21 23.5129 143.37 24.0136 143.743 24.2896C144.108 24.5656 144.506 24.6362 144.84 24.7325C145.533 24.8673 145.996 25.2525 146.265 25.6954C146.805 26.5877 146.528 27.3066 146.606 27.3002Z" fill="#455A64"/>
<path d="M117.098 14.0064C117.066 14.0129 117.477 14.2825 118.138 13.9679C118.459 13.8267 118.78 13.5186 119.088 13.1591C119.396 12.7932 119.749 12.4016 120.256 12.1192C121.238 11.5607 122.837 11.4131 124.056 12.3695C124.679 12.8189 125.231 13.4544 125.957 13.9808C126.316 14.2375 126.74 14.4686 127.221 14.5649C127.696 14.6612 128.203 14.5906 128.659 14.4301C129.571 14.1027 130.283 13.5443 131.066 13.2618C131.849 12.9601 132.665 12.8253 133.435 12.8381C134.988 12.8446 136.336 13.4287 137.254 14.1541C138.192 14.8794 138.737 15.6883 139.058 16.266C139.373 16.8501 139.488 17.2096 139.52 17.1968C139.533 17.1904 139.514 17.1005 139.469 16.9272C139.424 16.7539 139.334 16.5035 139.193 16.1954C138.904 15.5856 138.378 14.719 137.428 13.9358C136.497 13.1527 135.085 12.4979 133.441 12.4787C132.626 12.4594 131.766 12.5878 130.931 12.9087C130.084 13.2169 129.352 13.7753 128.531 14.0642C128.12 14.2119 127.703 14.2632 127.298 14.1862C126.894 14.1091 126.528 13.9101 126.188 13.6726C125.507 13.1912 124.942 12.5557 124.275 12.0807C123.614 11.5864 122.805 11.3425 122.073 11.3489C121.335 11.3553 120.661 11.5607 120.122 11.8752C119.576 12.1898 119.204 12.6391 118.921 13.0115C118.626 13.3838 118.356 13.6726 118.067 13.8267C117.49 14.1605 117.098 13.9679 117.098 14.0064Z" fill="#455A64"/>
<path d="M127.221 39.1324C127.06 39.0938 126.881 40.1723 125.828 40.7821C124.775 41.3919 123.652 41.0774 123.613 41.2314C123.588 41.2956 123.831 41.4818 124.319 41.5781C124.794 41.6744 125.513 41.6358 126.155 41.2635C126.797 40.8912 127.144 40.3071 127.253 39.8706C127.375 39.4276 127.298 39.1388 127.221 39.1324Z" fill="#263238"/>
<path d="M60.7997 139.43C62.7062 137.729 65.3445 136.939 67.8929 137.087L72.2323 150.875C69.0548 151.017 65.8837 152.654 62.8153 151.813C60.3503 151.139 58.4823 148.821 58.1421 146.292C57.789 143.763 58.8867 141.131 60.7997 139.43Z" fill="#F05322"/>
<path d="M67.8071 136.766C67.8007 136.657 67.3385 136.567 66.4911 136.58C65.6566 136.606 64.4113 136.696 62.9413 137.248C61.4649 137.793 59.8601 138.91 58.6212 140.605C57.9985 141.452 57.4785 142.46 57.1768 143.596C56.8687 144.726 56.8174 145.991 57.0677 147.21C57.3181 148.436 57.8573 149.585 58.6468 150.503C59.4364 151.428 60.4442 152.063 61.4456 152.442C63.4677 153.199 65.4127 153.078 66.902 152.795C68.4041 152.5 69.5339 152.063 70.3042 151.742C71.0681 151.415 71.4661 151.171 71.434 151.062C71.4019 150.953 70.9332 150.985 70.118 151.12C69.3028 151.248 68.1473 151.498 66.7351 151.627C65.3357 151.755 63.641 151.71 62.0234 151.017C61.221 150.67 60.4763 150.157 59.8986 149.451C59.3145 148.745 58.9036 147.846 58.7046 146.877C58.2874 144.919 58.8844 142.961 59.8793 141.484C60.8807 139.995 62.1838 138.93 63.4163 138.326C64.6552 137.71 65.7979 137.434 66.581 137.222C67.3706 137.017 67.8199 136.882 67.8071 136.766Z" fill="#303D46"/>
<path d="M108.012 188.474L117.448 214.915L84.6134 226.823C83.6698 223.62 98.3699 211.16 98.3699 211.16L91.6297 194.47L108.012 188.474Z" fill="#F05322"/>
<g opacity="0.6">
<g opacity="0.6">
<g opacity="0.6">
<g opacity="0.6">
<g opacity="0.6">
<g opacity="0.6">
<g opacity="0.6">
<g opacity="0.6">
<g opacity="0.6">
<g opacity="0.6">
<path opacity="0.6" d="M108.004 206.058C108.704 206 109.403 206.559 109.487 207.252C109.57 207.945 109.012 208.664 108.318 208.728C107.619 208.799 106.765 208.157 106.759 207.457C106.752 206.758 107.452 205.955 108.145 206.051" fill="white"/>
</g>
</g>
</g>
</g>
</g>
</g>
</g>
</g>
</g>
</g>
<path d="M117.448 214.915L116.498 212.245L85.3067 224.685C85.3067 224.685 84.0742 225.854 84.6135 226.823L117.448 214.915Z" fill="#303D46"/>
<path d="M97.7718 211.187C97.836 211.347 98.6641 211.129 99.6398 211.354C100.622 211.559 101.283 212.105 101.405 211.989C101.54 211.906 100.956 211.033 99.7682 210.776C98.587 210.513 97.6883 211.052 97.7718 211.187Z" fill="#263238"/>
<path d="M94.8451 213.864C94.8643 214.03 95.6603 214.05 96.4499 214.531C97.2523 214.987 97.6567 215.674 97.8172 215.61C97.9776 215.578 97.7465 214.602 96.7516 214.024C95.763 213.433 94.7937 213.71 94.8451 213.864Z" fill="#263238"/>
<path d="M94.3877 218.69C94.5482 218.671 94.4776 217.792 93.7458 217.06C93.0204 216.328 92.141 216.251 92.1218 216.412C92.0768 216.579 92.738 216.874 93.3286 217.477C93.932 218.074 94.2208 218.735 94.3877 218.69Z" fill="#263238"/>
<path d="M96.6606 207.213C96.7826 207.335 97.4373 206.847 98.3617 206.577C99.2861 206.288 100.101 206.34 100.133 206.173C100.185 206.025 99.2797 205.679 98.1884 206.012C97.1036 206.333 96.5322 207.116 96.6606 207.213Z" fill="#263238"/>
<path d="M96.031 203.033C96.0502 203.097 96.7242 202.968 97.6743 202.429C98.1493 202.16 98.6821 201.781 99.202 201.274C99.4652 201.023 99.722 200.741 99.9659 200.433C100.081 200.279 100.223 200.118 100.319 199.868C100.435 199.637 100.383 199.175 100.081 198.989C99.8247 198.796 99.4845 198.796 99.247 198.879C99.003 198.956 98.8233 199.078 98.6628 199.188C98.329 199.406 98.0273 199.656 97.7706 199.906C97.2442 200.42 96.8654 200.966 96.6151 201.454C96.108 202.436 96.0695 203.129 96.1337 203.142C96.2235 203.167 96.4161 202.532 96.981 201.665C97.2634 201.235 97.6486 200.754 98.1493 200.304C98.3996 200.08 98.6821 199.868 98.9902 199.669C99.3048 199.451 99.6 199.342 99.7477 199.464C99.799 199.508 99.8119 199.534 99.7798 199.663C99.7413 199.785 99.6321 199.926 99.5166 200.08C99.2919 200.375 99.0608 200.645 98.8297 200.889C98.3611 201.383 97.8797 201.774 97.4624 202.076C96.5958 202.68 95.9924 202.949 96.031 203.033Z" fill="#263238"/>
<path d="M96.32 203.188C96.3842 203.195 96.4933 202.501 96.1788 201.442C96.0183 200.916 95.7423 200.312 95.2993 199.722C95.0811 199.426 94.8179 199.144 94.5162 198.874C94.2081 198.618 93.8165 198.271 93.1681 198.425C92.8408 198.528 92.661 198.881 92.6482 199.131C92.6225 199.394 92.6674 199.593 92.6995 199.792C92.7766 200.197 92.9242 200.569 93.0975 200.903C93.457 201.564 93.9513 202.039 94.4135 202.347C95.3635 202.963 96.1017 202.912 96.0953 202.854C96.121 202.752 95.447 202.649 94.6638 202.007C94.2787 201.692 93.8678 201.237 93.5854 200.652C93.4442 200.357 93.3286 200.036 93.2708 199.69C93.1938 199.324 93.2259 198.99 93.3671 198.983C93.5276 198.919 93.8999 199.086 94.1375 199.311C94.4135 199.542 94.6574 199.799 94.8692 200.056C95.2929 200.575 95.5882 201.108 95.7808 201.583C96.1788 202.533 96.2237 203.195 96.32 203.188Z" fill="#263238"/>
<path d="M139.818 117.864C144.8 117.979 149.524 118.685 152.952 122.293C157.503 127.082 163.127 133.912 163.448 138.643C163.923 145.717 159.66 147.822 156.541 149.542C155.16 150.306 153.588 150.647 152.015 150.589L94.4473 150.152L92.6371 140.402L129.869 131.228L128.322 117.215L139.818 117.864Z" fill="#263238"/>
<path d="M128.334 117.214L110.226 116.379C110.226 116.379 78.9446 118.119 72.2686 124.236C65.5926 130.354 66.4271 137.306 68.6546 143.975C70.8821 150.651 90.48 193.326 90.48 193.326C90.48 193.326 88.888 196.042 89.7867 198.751C91.1733 202.942 94.8964 203.616 94.8964 203.616L112.305 197.216C112.305 197.216 114.668 196.382 112.999 194.161C111.33 191.933 110.219 191.523 110.219 191.523V187.074C110.219 187.074 104.102 175.95 103.543 174.422C102.985 172.894 97.1239 150.26 97.1239 150.26L93.2274 143.565C93.2274 143.565 102.644 139.135 110.81 135.926L129.875 131.227L128.334 117.214Z" fill="#263238"/>
<path d="M98.9642 196.413C98.9963 196.458 99.5484 196.022 100.492 195.412C101.436 194.802 102.79 194.045 104.388 193.435C105.987 192.831 107.508 192.491 108.619 192.324C109.729 192.151 110.429 192.112 110.423 192.061C110.423 192.023 109.716 191.978 108.587 192.093C107.457 192.202 105.897 192.51 104.267 193.127C102.636 193.749 101.275 194.552 100.351 195.219C99.4392 195.887 98.9386 196.388 98.9642 196.413Z" fill="#455A64"/>
<path d="M90.2642 193.36C90.2963 193.386 90.6879 192.982 91.2785 192.295C91.8626 191.608 92.6458 190.626 93.4674 189.515C94.2891 188.405 94.9888 187.365 95.4702 186.601C95.9517 185.837 96.2213 185.343 96.1892 185.317C96.1507 185.291 95.8105 185.734 95.2777 186.466C94.6678 187.301 93.9746 188.257 93.2043 189.316C92.4211 190.369 91.715 191.319 91.0988 192.147C90.5531 192.872 90.2257 193.328 90.2642 193.36Z" fill="#455A64"/>
<path d="M83.8795 137.454C83.8667 137.505 84.5215 137.646 85.5293 137.98C86.5371 138.314 87.898 138.879 89.2781 139.739C90.6518 140.599 91.7624 141.575 92.5006 142.332C93.2452 143.09 93.656 143.616 93.701 143.584C93.7331 143.565 93.3864 142.987 92.6739 142.172C91.9678 141.357 90.8572 140.33 89.4514 139.45C88.0456 138.577 86.6398 138.032 85.5935 137.749C84.5536 137.473 83.8859 137.415 83.8795 137.454Z" fill="#455A64"/>
<path d="M101.69 167.673C101.703 167.673 101.677 167.538 101.62 167.294C101.549 167.018 101.459 166.665 101.35 166.235C101.093 165.272 100.74 163.956 100.31 162.352C99.3857 159.039 98.134 154.539 96.7474 149.571C96.022 147.08 95.4058 144.699 94.7061 142.548C93.8973 140.411 92.6134 138.767 91.4259 137.548C90.2319 136.328 89.1085 135.506 88.3125 134.98C87.9081 134.723 87.5936 134.531 87.3753 134.415C87.1571 134.293 87.0351 134.235 87.0351 134.248C87.0223 134.274 87.4716 134.543 88.2419 135.089C89.0122 135.641 90.0971 136.482 91.259 137.708C92.408 138.928 93.6469 140.565 94.4172 142.651C95.0848 144.776 95.7075 147.177 96.4265 149.661C97.8515 154.623 99.1354 159.11 100.085 162.416C100.56 164.014 100.946 165.317 101.228 166.274C101.363 166.697 101.472 167.044 101.555 167.32C101.632 167.551 101.677 167.68 101.69 167.673Z" fill="#455A64"/>
<path d="M117.707 135.07C117.797 135.077 118.182 131.694 118.555 127.508C118.933 123.323 119.164 119.921 119.074 119.914C118.985 119.908 118.599 123.291 118.227 127.476C117.848 131.662 117.617 135.064 117.707 135.07Z" fill="#455A64"/>
<path d="M147.848 144.11C147.9 144.135 148.176 143.59 148.747 142.781C149.312 141.979 150.198 140.939 151.379 140.021C152.56 139.103 153.78 138.486 154.698 138.14C155.616 137.787 156.213 137.646 156.2 137.588C156.193 137.556 155.571 137.607 154.614 137.915C153.658 138.217 152.387 138.814 151.167 139.757C149.954 140.708 149.068 141.799 148.548 142.653C148.022 143.506 147.816 144.097 147.848 144.11Z" fill="#455A64"/>
<path d="M136.752 131.819C136.784 131.87 137.554 131.376 138.883 130.773C140.212 130.163 142.131 129.502 144.333 129.181C146.541 128.866 148.57 128.969 150.014 129.174C151.458 129.38 152.338 129.636 152.35 129.579C152.357 129.559 152.145 129.476 151.753 129.354C151.362 129.219 150.778 129.078 150.052 128.943C148.602 128.673 146.535 128.532 144.288 128.847C142.048 129.174 140.103 129.887 138.787 130.561C138.125 130.894 137.612 131.196 137.272 131.434C136.925 131.665 136.745 131.8 136.752 131.819Z" fill="#455A64"/>
<path d="M93.3853 140.393C93.3853 140.406 93.5458 140.38 93.8347 140.316C94.162 140.245 94.5857 140.155 95.1121 140.04C96.2547 139.783 97.8531 139.423 99.8045 138.987C103.765 138.101 109.247 136.907 115.326 135.707C121.405 134.506 126.926 133.518 130.931 132.825C132.902 132.484 134.513 132.208 135.669 132.009C136.202 131.913 136.632 131.836 136.959 131.778C137.254 131.72 137.408 131.688 137.402 131.675C137.396 131.663 137.241 131.675 136.946 131.714C136.619 131.759 136.189 131.81 135.65 131.881C134.526 132.035 132.896 132.272 130.893 132.587C126.881 133.216 121.347 134.166 115.262 135.373C109.183 136.58 103.701 137.806 99.7532 138.749C97.7761 139.224 96.1841 139.616 95.0864 139.905C94.5665 140.046 94.1428 140.155 93.8218 140.245C93.533 140.335 93.3853 140.38 93.3853 140.393Z" fill="#455A64"/>
<path d="M129.882 132.877C129.946 132.897 130.081 132.114 130.678 131.035C130.98 130.502 131.416 129.905 131.994 129.334C132.565 128.756 133.265 128.172 134.01 127.588C135.512 126.439 137.04 125.624 138.131 125.027C139.235 124.436 139.915 124.07 139.89 124.025C139.871 123.987 139.152 124.276 138.022 124.815C136.898 125.36 135.332 126.15 133.804 127.318C133.047 127.909 132.347 128.499 131.769 129.109C131.185 129.713 130.749 130.348 130.466 130.913C130.184 131.484 130.03 131.979 129.953 132.319C129.876 132.678 129.863 132.877 129.882 132.877Z" fill="#455A64"/>
<path d="M65.7625 141.587C65.6855 141.657 66.6484 142.633 67.3994 144.109C68.1633 145.579 68.3944 146.934 68.4971 146.915C68.5806 146.915 68.4907 145.49 67.7011 143.962C66.918 142.415 65.8139 141.516 65.7625 141.587Z" fill="#263238"/>
<g opacity="0.3">
<g opacity="0.3">
<path opacity="0.3" d="M106.966 75.8051L102.845 104.833L102.64 105.295C101.67 95.3067 103.166 85.0873 106.966 75.8051Z" fill="black"/>
</g>
</g>
<path d="M84.7758 92.4807L98.1727 115.917L131.187 116.636L131.27 118.132L99.3025 117.894L98.2882 117.862L64.5295 117.926L57.7058 106.16L48.9885 93.6682C48.4172 92.8466 49.0078 91.7296 50.0028 91.7296L83.6973 91.858C84.1531 91.8644 84.5575 92.1019 84.7758 92.4807Z" fill="#E0E0E0"/>
<path d="M57.7104 106.158C57.7104 106.158 55.9772 107.75 56.2468 109.098C56.5229 110.446 56.4266 111.454 57.7104 111.544C57.7104 111.544 57.6206 113.277 59.4436 113.553C59.4436 113.553 59.052 115.671 61.517 116.037C61.517 116.037 62.2745 118.303 63.8279 117.751C65.3814 117.205 66.3828 116.563 66.3828 116.563L66.8386 115.742C66.8386 115.742 69.1238 114.882 68.5589 113.591C68.2187 112.808 67.0311 112.603 67.0311 112.603C67.0311 112.603 67.5254 111.454 66.8835 110.594C66.3379 109.855 64.5469 110.465 64.5469 110.465C64.5469 110.465 64.6496 109.515 63.982 108.719C63.3722 108 60.5349 109.958 60.5349 109.958L58.9814 108.109L57.7104 106.158Z" fill="#FFBE9D"/>
<path d="M61.5184 116.039C61.5698 116.116 62.8408 115.41 64.3686 114.466C65.8963 113.516 67.0903 112.688 67.039 112.611C66.9876 112.534 65.7166 113.234 64.1888 114.184C62.6675 115.127 61.4735 115.962 61.5184 116.039Z" fill="#EB996E"/>
<path d="M59.4443 113.552C59.4892 113.629 60.6767 113.007 62.089 112.153C63.5012 111.299 64.6053 110.548 64.5604 110.471C64.5154 110.394 63.3279 111.017 61.9157 111.87C60.5034 112.718 59.3993 113.475 59.4443 113.552Z" fill="#EB996E"/>
<path d="M62.2689 108.906C62.2176 108.81 61.1584 109.368 59.9259 110.152C58.6934 110.941 57.6984 111.551 57.7241 111.615C57.769 111.724 58.8731 111.224 60.1056 110.434C61.3446 109.651 62.3074 108.977 62.2689 108.906Z" fill="#EB996E"/>
<path d="M48.9955 92.6202C48.9955 92.6267 49.0533 92.6331 49.156 92.6395C49.2844 92.6459 49.4385 92.6523 49.631 92.6588C50.074 92.6652 50.6838 92.678 51.4541 92.6909C53.0653 92.7037 55.3506 92.723 58.1558 92.7422C63.8432 92.7551 71.649 92.7743 80.27 92.7936C80.8092 92.7936 81.3484 92.7936 81.8812 92.7936C82.3884 92.7551 82.8441 92.9797 83.1073 93.3713C83.6144 94.2893 84.1151 95.1879 84.6094 96.0802C85.598 97.8584 86.548 99.5787 87.4531 101.216C89.2698 104.483 90.9067 107.423 92.2868 109.901C93.6605 112.347 94.7839 114.337 95.5735 115.742C95.9586 116.41 96.2603 116.936 96.4786 117.321C96.5749 117.488 96.6583 117.617 96.7225 117.726C96.7803 117.816 96.8124 117.861 96.8124 117.861C96.8188 117.861 96.7931 117.809 96.7482 117.713C96.6904 117.597 96.6198 117.463 96.5364 117.289C96.3309 116.898 96.0421 116.359 95.6826 115.678C94.9123 114.259 93.8274 112.257 92.4922 109.785C91.1314 107.295 89.5137 104.342 87.7163 101.062C86.8176 99.4182 85.8676 97.6979 84.8854 95.9133C84.3912 95.021 83.8905 94.1095 83.3769 93.1851C83.0624 92.6844 82.4333 92.4084 81.8748 92.4534C81.342 92.4534 80.8028 92.4534 80.2636 92.4534C71.6362 92.4726 63.8304 92.4919 58.1493 92.5047C55.3377 92.524 53.0589 92.5432 51.4477 92.5561C50.6774 92.5689 50.0675 92.5817 49.6246 92.5882C49.432 92.5946 49.278 92.601 49.1496 92.6074C49.0469 92.6074 48.9955 92.6138 48.9955 92.6202Z" fill="#263238"/>
<path d="M72.745 104.399C73.342 105.06 73.3549 106.016 72.7772 106.543C72.1994 107.063 71.2429 106.953 70.646 106.292C70.049 105.631 70.0361 104.675 70.6139 104.148C71.198 103.628 72.1545 103.737 72.745 104.399Z" fill="white"/>
<g opacity="0.3">
<g opacity="0.3">
<path opacity="0.3" d="M166.464 95.3393C166.753 95.4549 167.074 95.6474 167.08 95.9556C167.08 96.2059 166.849 96.4049 166.605 96.4563C166.361 96.5076 165.475 96.1417 165.231 96.0904C161.759 95.3265 158.902 96.0583 155.596 97.3549L155.487 97.2458C156.803 94.4663 162.728 93.8372 166.464 95.3393Z" fill="black"/>
</g>
</g>
<path d="M106.105 32.8561L97.0408 33.8575C94.8583 30.7506 91.8156 28.1893 88.0731 26.5781C77.3081 21.9434 64.8291 26.9183 60.1944 37.6833C55.5597 48.4484 60.5346 60.9274 71.2997 65.562C82.0647 70.1967 94.5437 65.2218 99.1784 54.4568C101.111 49.9633 101.367 45.1681 100.231 40.771L100.238 40.7838L106.105 32.8561Z" fill="#FAFAFA"/>
<path d="M106.105 32.8557C105.752 33.3308 103.916 35.7572 100.167 40.7321L100.308 40.7386L100.302 40.7257C100.283 40.6872 100.231 40.6679 100.186 40.6936C100.154 40.7129 100.135 40.7514 100.148 40.7899C100.899 43.7235 101.188 47.5815 100.007 51.7475C99.7049 52.781 99.339 53.8402 98.8319 54.8673C98.5751 55.3808 98.3312 55.9072 98.0488 56.4272C97.7342 56.9279 97.4197 57.435 97.0987 57.9485C95.7186 59.9385 93.9276 61.8129 91.7387 63.3278C89.5561 64.8492 86.9756 66.0175 84.1704 66.6273C81.3652 67.2436 78.3289 67.3142 75.3375 66.6658C72.3526 66.0175 69.4254 64.7015 66.8834 62.7501C64.3542 60.7987 62.1589 58.2438 60.753 55.2268C59.3023 52.1648 58.532 48.8139 58.6475 45.5401C58.7374 42.2727 59.5976 39.1081 61.0226 36.3478C62.4477 33.5875 64.4377 31.206 66.7614 29.4279C69.0724 27.6369 71.6721 26.4044 74.2784 25.7047C76.891 25.005 79.5036 24.8445 81.9429 25.0885C84.3886 25.3452 86.6033 26.077 88.5868 26.9244C92.5347 28.7346 95.2564 31.4692 96.9768 33.8892C96.996 33.9149 97.0217 33.9277 97.0538 33.9213C102.786 33.2537 105.546 32.9263 106.105 32.8557C105.54 32.9135 102.78 33.1895 97.0281 33.7737L97.1051 33.8058C95.3976 31.3536 92.6695 28.5741 88.6831 26.719C86.6867 25.8459 84.44 25.0949 81.9686 24.8317C79.5036 24.5749 76.8525 24.729 74.2013 25.4351C71.5566 26.1348 68.9247 27.3801 66.5689 29.1904C64.213 30.9877 62.191 33.4014 60.7338 36.2002C59.2766 38.9989 58.4036 42.2086 58.3073 45.5337C58.1853 48.8589 58.9685 52.2611 60.4385 55.3744C61.87 58.4428 64.0975 61.0362 66.6716 63.0197C69.2521 65.0033 72.2306 66.3385 75.2605 66.9868C78.2968 67.6351 81.3844 67.5581 84.2282 66.929C87.0783 66.2999 89.6845 65.1124 91.8992 63.5653C94.1138 62.0183 95.924 60.1182 97.3106 58.0962C97.6315 57.5762 97.9525 57.0627 98.267 56.5555C98.5495 56.0292 98.7934 55.4964 99.0502 54.9764C99.5573 53.9365 99.9232 52.8645 100.225 51.8181C101.4 47.6007 101.079 43.7042 100.302 40.7514L100.148 40.8156L100.154 40.8284C100.174 40.8669 100.225 40.8862 100.27 40.8605C100.283 40.8541 100.289 40.8477 100.296 40.8348C103.967 35.7957 105.758 33.3308 106.105 32.8557Z" fill="#263238"/>
<path d="M87.5039 38.5088C87.4975 38.5153 87.4911 38.6115 87.4847 38.8041C87.4783 39.016 87.4719 39.2856 87.4654 39.6258C87.459 40.364 87.4462 41.4039 87.4269 42.7134C87.4077 45.3774 87.382 49.1263 87.3563 53.6197L87.5039 53.4721C83.1068 53.4657 77.9264 53.4593 72.3995 53.4464C72.361 53.4079 72.714 53.761 72.5664 53.6133V53.6069V53.6005V53.5812V53.5491V53.4849V53.3565V53.0998V52.5862C72.5664 52.246 72.5664 51.8994 72.5664 51.5592C72.5664 50.8787 72.5664 50.2047 72.5664 49.5371C72.5664 48.2019 72.5664 46.8988 72.56 45.6342C72.5535 43.0986 72.5471 40.7042 72.5407 38.5088L72.3931 38.6565C76.8865 38.6244 80.6354 38.5987 83.2993 38.5859C84.6089 38.5666 85.6424 38.5602 86.387 38.5474C86.7272 38.5409 86.9968 38.5345 87.2087 38.5281C87.3948 38.5217 87.4975 38.5153 87.5039 38.5088C87.5104 38.5024 87.4205 38.496 87.2408 38.4896C87.0353 38.4832 86.7722 38.4768 86.4448 38.4703C85.713 38.4639 84.6859 38.4511 83.3892 38.4318C80.706 38.4126 76.9186 38.3869 72.3931 38.3612H72.2518V38.5088C72.2454 40.7042 72.239 43.0986 72.2326 45.6342C72.2326 46.9052 72.2326 48.2083 72.2262 49.5371C72.2262 50.2047 72.2262 50.8787 72.2262 51.5592C72.2262 51.8994 72.2262 52.2396 72.2262 52.5862V53.0998V53.3565V53.4849V53.5491V53.5812V53.6005V53.6069V53.6133C72.0785 53.4657 72.4316 53.8187 72.3931 53.7802C77.92 53.7738 83.1003 53.7674 87.4975 53.7545H87.6452V53.6069C87.6131 49.0749 87.5874 45.294 87.5746 42.6107C87.5617 41.3205 87.5489 40.2934 87.536 39.5552C87.5296 39.2278 87.5232 38.9646 87.5168 38.7592C87.5168 38.5923 87.5104 38.5088 87.5039 38.5088Z" fill="#263238"/>
<path d="M74.0316 41.0054C73.8134 41.1787 75.8483 44.1059 78.57 47.5402C79.1156 48.227 79.642 48.8818 80.1363 49.4788L80.4573 49.8704L80.8167 49.543C83.179 47.4182 84.7774 45.7877 84.6298 45.6208C84.4821 45.4539 82.6398 46.802 80.1941 48.824L80.8809 48.8882C80.4123 48.272 79.8988 47.6044 79.3531 46.9175C76.6314 43.4832 74.2434 40.8385 74.0316 41.0054Z" fill="#F05322"/>
</svg>
