<svg width="295" height="228" viewBox="0 0 295 228" fill="none" xmlns="http://www.w3.org/2000/svg">
<path d="M0 146.83C6.91197 173.012 30.367 197.539 62.4284 213.364L264.562 177.638C280.79 158.486 290.673 136.001 294.771 113.381L0 146.83Z" fill="#DDDDDD"/>
<path d="M63.122 213.711L264.554 177.638C264.822 177.323 265.075 177.007 265.335 176.7L61.9319 213.12C62.3339 213.317 62.728 213.514 63.122 213.711Z" fill="#8B9295"/>
<path d="M84.3202 33.4522L69.4674 26.878V22.1604L84.3202 15.5862V20.9125L75.5546 24.504L84.3202 28.1259V33.4522ZM85.8446 34L92.9667 13.8514H98.8408L91.7188 34H85.8446ZM69.4674 79.4522V74.1259L78.233 70.504L69.4674 66.9125V61.5862L84.3202 68.1604V72.878L69.4674 79.4522Z" fill="#C4C4C4"/>
<path d="M254.753 58.1359C251.696 58.1726 249.355 57.4495 247.73 55.9665C246.105 54.4835 245.276 52.3708 245.243 49.6283C245.209 46.7985 245.969 44.623 247.523 43.1019C249.077 41.5633 251.409 40.7754 254.518 40.7381C255.566 40.7255 256.502 40.7929 257.325 40.9402C258.148 41.0876 258.936 41.2965 259.691 41.567L259.742 45.8641C258.232 45.2184 256.621 44.9058 254.909 44.9263C253.32 44.9454 252.145 45.3264 251.385 46.0692C250.625 46.7947 250.255 47.9609 250.274 49.568C250.293 51.1401 250.708 52.2707 251.52 52.9598C252.349 53.6312 253.533 53.9576 255.07 53.9392C255.908 53.9291 256.72 53.8408 257.504 53.6741C258.305 53.5073 259.097 53.2532 259.879 52.9119L259.931 57.2352C259.183 57.5062 258.391 57.7167 257.554 57.8665C256.735 58.0335 255.801 58.1233 254.753 58.1359ZM264.637 55.3443L264.599 52.2001L261.193 52.2409L261.147 48.4678L264.554 48.427L264.515 45.2565L268.315 45.2109L268.353 48.3814L271.759 48.3405L271.804 52.1136L268.398 52.1545L268.436 55.2987L264.637 55.3443ZM249.189 94.5314L249.151 91.3872L245.745 91.4281L245.7 87.655L249.106 87.6141L249.068 84.4436L252.867 84.398L252.905 87.5685L256.311 87.5276L256.357 91.3007L252.95 91.3416L252.988 94.4858L249.189 94.5314Z" fill="#C4C4C4"/>
<path d="M40.3211 145.167L37.7754 144.355C36.7903 144.04 36.1282 143.133 36.1282 142.101V43.8043C36.1282 42.5354 37.1292 41.4951 38.3902 41.4399L152.654 36.6323C154.514 36.5535 156.374 36.7032 158.195 37.0658L162.356 38.5238L57.9675 138.696L40.3211 145.167Z" fill="#263238"/>
<path d="M47.8793 149.155V151.669C47.8793 152.536 48.3522 153.332 49.1088 153.742L67.9217 163.987C68.363 164.232 68.8675 164.318 69.3719 164.255L158.282 152.236C159.062 152.134 159.645 151.464 159.645 150.676V148.382L134.559 138.444L47.8793 149.155Z" fill="#455A64"/>
<path d="M83.9682 150.621L80.4689 149.194V136.3H85.245L83.9682 150.621Z" fill="#263238"/>
<path d="M127.915 127.859L83.9683 132.478V150.621L127.915 145.214V127.859Z" fill="#37474F"/>
<path d="M161.608 130.689L40.3211 145.175V45.7195C40.3211 44.4506 41.322 43.4103 42.5831 43.3551L161.229 38.2795C162.577 38.2243 163.696 39.2962 163.696 40.6439V128.332C163.688 129.538 162.798 130.547 161.608 130.689Z" fill="#455A64"/>
<path d="M48.1868 129.878L157.746 118.394C158.676 118.3 159.385 117.512 159.385 116.574V46.1616C159.385 45.1134 158.51 44.2858 157.47 44.3331L47.911 49.7634C46.9415 49.8107 46.1771 50.6146 46.1771 51.5919V128.057C46.1692 129.145 47.1071 129.996 48.1868 129.878Z" fill="#FAFAFA"/>
<path d="M125.077 45.948L47.903 49.7705C46.9336 49.8178 46.1691 50.6217 46.1691 51.599V128.064C46.1691 129.152 47.107 129.995 48.1868 129.885L125.077 121.822V45.948Z" fill="#E0E0E0"/>
<path d="M55.4376 70.1675L55.3903 67.8109L85.0874 65.7539L85.1268 68.1183L55.4376 70.1675Z" fill="#52C3B0"/>
<path d="M59.6778 74.3446L59.6305 71.9881L89.3275 69.931L89.3669 72.2954L59.6778 74.3446Z" fill="#455A64"/>
<path d="M60.0168 78.9L59.9695 76.5356L85.2608 74.8647L85.3002 77.2213L60.0168 78.9Z" fill="#455A64"/>
<path d="M55.6898 83.5422L55.6425 81.1778L85.3396 79.1287L85.3868 81.4852L55.6898 83.5422Z" fill="#52C3B0"/>
<path d="M60.8363 87.6011L60.7969 85.2367L90.4861 83.1797L90.5334 85.5441L60.8363 87.6011Z" fill="#455A64"/>
<path d="M66.2982 91.7467L66.2509 89.3902L88.6025 87.8455L88.6498 90.202L66.2982 91.7467Z" fill="#455A64"/>
<path d="M66.6844 96.0973L66.6371 93.7408L85.5918 92.4482L85.6391 94.8127L66.6844 96.0973Z" fill="#455A64"/>
<path d="M66.771 100.684L66.7238 98.3197L96.4208 96.2627L96.4681 98.6271L66.771 100.684Z" fill="#455A64"/>
<path d="M61.1753 105.074L61.128 102.71L90.825 100.653L90.8644 103.017L61.1753 105.074Z" fill="#455A64"/>
<path d="M56.2021 110.284L56.1548 107.919L85.8361 105.429L85.8834 107.793L56.2021 110.284Z" fill="#52C3B0"/>
<path d="M50.5906 49.8572L50.4251 49.6444L47.903 49.7705C46.9336 49.8178 46.1691 50.6217 46.1691 51.599V128.064C46.1691 129.152 47.107 129.995 48.1868 129.885L50.5906 129.633V49.8572Z" fill="#B5B8B9"/>
<path d="M159.377 49.9833V46.0268C159.377 44.9786 158.502 44.1511 157.462 44.1983L47.903 49.6286C46.9336 49.6759 46.1691 50.4798 46.1691 51.4571V55.1929L159.377 49.9833Z" fill="#52C3B0"/>
<path d="M130.39 110.662L155.949 108.369V57.3683L130.39 58.7318V110.662Z" fill="#303D46"/>
<path d="M47.8793 149.155V151.669C47.8793 152.536 48.3522 153.332 49.1088 153.742L67.9217 163.987C68.363 164.232 68.8675 164.318 69.3719 164.255L158.282 152.236C159.062 152.134 159.645 151.464 159.645 150.676V148.382L68.8911 160.701L47.8793 149.155Z" fill="#263238"/>
<path d="M66.913 173.477V176.393C66.913 177.26 67.3543 178.071 68.0873 178.544L85.0638 189.452C85.8913 189.988 86.8923 190.185 87.8617 190.02L192.479 171.948C193.614 171.751 194.442 170.765 194.442 169.615V167.692L168.48 157.879L66.913 173.477Z" fill="#455A64"/>
<path d="M87.8617 190.028L192.479 171.956C193.614 171.758 194.442 170.773 194.442 169.623V167.7L87.9405 185.551C86.9868 185.709 86.0095 185.511 85.1899 184.999L66.913 173.477V176.582C66.913 177.339 67.2991 178.04 67.9297 178.442L85.0638 189.452C85.8913 189.996 86.8923 190.193 87.8617 190.028Z" fill="#263238"/>
<path d="M173.02 81.7611C173.02 81.7611 168.732 82.2182 168.015 77.1663C167.298 72.1143 165.336 70.6878 163.192 67.8268C161.048 64.9659 163.192 61.3956 163.192 61.3956C163.192 61.3956 157.833 60.6784 158.368 55.1457C158.904 49.6051 162.475 49.2504 162.475 49.2504C162.475 49.2504 159.44 41.2114 167.479 41.0301C167.479 41.0301 165.517 35.1349 169.268 31.5646C173.02 27.9943 174.982 27.6318 174.982 27.6318C174.982 27.6318 171.948 23.3443 174.982 21.0193C178.017 18.6943 177.481 25.4881 182.667 22.9818C187.845 20.4834 197.673 16.0146 199.817 23.699C199.817 23.699 208.746 20.6647 211.071 28.7037C211.071 28.7037 223.398 24.0615 226.077 33.7083C226.077 33.7083 236.977 37.6411 234.471 49.2504C234.471 49.2504 239.83 52.466 239.649 60.505C239.468 68.544 233.399 71.405 233.399 71.405C233.399 71.405 237.151 81.036 229.648 84.4408C229.648 84.4408 229.325 93.7014 220.647 90.2336C211.97 86.7658 180.886 81.0518 180.886 81.0518L173.02 81.7611Z" fill="#263238"/>
<path d="M195.608 45.5697C195.608 45.5697 197.318 42.3541 195.332 38.5317C193.354 34.7013 188.499 36.0727 186.923 38.5317C185.354 40.9906 183.486 44.4427 183.486 44.4427V44.7501L186.718 46.7992L195.608 45.5697Z" fill="#1D272B"/>
<path d="M202.749 32.1951C203.056 30.6977 203.166 29.1214 202.812 27.6397C202.867 29.1529 202.552 30.6189 202.157 32.0454C201.756 33.3931 201.251 34.7172 200.668 36.0097C200.841 34.5517 200.833 33.0621 200.644 31.5804C200.266 29.6258 199.438 27.6634 197.941 26.229C196.451 24.7788 194.371 24.1089 192.369 23.9985C190.367 23.9197 188.334 24.1246 186.458 24.9522C184.566 25.7561 183.077 27.3087 182.028 28.9795C180.941 30.6346 180.153 32.4552 178.805 33.7241C178.135 34.3468 177.323 34.7802 176.425 34.9615C175.479 35.1428 174.47 35.3871 173.54 35.8048C172.634 36.2698 171.798 36.9161 171.207 37.7515C170.616 38.5791 170.293 39.6036 170.403 40.5809C170.451 39.6036 170.908 38.6973 171.53 38.0116C172.169 37.318 172.988 36.8452 173.863 36.522C174.722 36.1358 175.621 35.9073 176.582 35.726C177.095 35.6314 177.583 35.4344 178.056 35.2058C178.513 34.9536 178.947 34.6541 179.333 34.2995C180.846 32.8572 181.626 30.9893 182.683 29.4051C183.699 27.7973 185.039 26.4023 186.773 25.6694C188.475 24.9128 190.43 24.7 192.314 24.7788C194.189 24.8812 196.049 25.496 197.381 26.7885C198.729 28.0653 199.494 29.8701 199.856 31.7223C200.266 33.2591 200.424 34.8827 200.416 36.5141C199.864 37.7358 199.249 38.9337 198.611 40.1159C198.761 38.5081 198.729 36.8846 198.493 35.2689C198.233 33.4168 197.523 31.4701 195.971 30.1539C195.214 29.4918 194.229 29.1057 193.244 28.9874C192.251 28.8613 191.273 28.9953 190.343 29.2239C188.475 29.6495 186.671 30.6346 185.433 32.1242C184.156 33.5744 183.321 35.2925 182.375 36.853C181.91 37.6412 181.382 38.3742 180.775 39.0125C180.168 39.6588 179.42 40.1159 178.624 40.4627C176.921 41.1405 175.14 41.5976 173.351 42.2518C172.476 42.5907 171.507 43.0478 170.908 43.9305C170.34 44.7187 170.151 45.6329 170.033 46.5077C168.764 46.9964 167.669 47.7766 166.825 48.8327C165.911 49.9519 165.462 51.3784 165.367 52.7892C165.312 54.1921 165.627 55.595 166.218 56.8481C166.833 58.0855 167.763 59.181 168.953 59.8352C167.858 59.0391 167.085 57.8884 166.62 56.6747C166.171 55.4452 166.053 54.1133 166.171 52.8286C166.226 51.5518 166.644 50.3066 167.44 49.3135C168.212 48.3205 169.339 47.556 170.498 47.1461L170.75 47.0594L170.782 46.8072C170.884 45.9245 171.058 45.0339 171.546 44.3719C172.003 43.6941 172.799 43.2921 173.635 42.969C175.337 42.3464 177.166 41.8735 178.907 41.1799C179.806 40.7937 180.665 40.2578 181.335 39.5485C182.013 38.847 182.572 38.0589 183.045 37.2471C184.015 35.6393 184.834 33.9763 186.016 32.6286C187.167 31.2494 188.783 30.3746 190.525 29.9726C192.243 29.5155 194.15 29.5864 195.458 30.7371C196.112 31.2888 196.633 32.0139 196.987 32.8257C197.342 33.6374 197.689 34.4729 197.901 35.3635C198.303 36.9476 198.477 38.5948 198.516 40.2499C198.162 40.8804 197.807 41.5109 197.429 42.1257C197.027 42.7483 196.672 43.4419 196.105 43.9226C196.467 43.7887 196.727 43.4734 196.995 43.2133C197.255 42.9375 197.507 42.6459 197.752 42.3542C198.225 41.7631 198.674 41.1405 199.092 40.51C199.927 39.2411 200.66 37.9013 201.283 36.5063C201.921 35.1428 202.433 33.7005 202.749 32.1951Z" fill="#344A51"/>
<path d="M218.354 58.3848C217.731 57.8252 217.124 57.1947 216.801 56.4617C216.462 55.713 216.281 54.8618 216.139 54.0027C215.871 52.2846 215.792 50.5113 215.627 48.738C215.461 46.9647 215.264 45.1677 214.72 43.4181C214.445 42.5511 214.074 41.692 213.53 40.9197C212.994 40.1552 212.23 39.4931 211.394 39.0912L210.772 38.7759L210.118 38.5395C209.684 38.3582 209.219 38.303 208.77 38.1927C207.848 38.0745 206.918 38.0508 205.996 38.1927C204.199 38.6183 202.536 39.4301 201.18 40.5886C202.717 39.7059 204.412 39.1227 206.114 38.973C206.957 38.8547 207.808 38.8547 208.644 38.9651C209.054 39.0675 209.479 39.1148 209.865 39.2803L210.464 39.4931L211.032 39.7769C212.561 40.4862 213.475 42.0152 213.98 43.6466C214.492 45.2859 214.697 47.0435 214.854 48.7932C215.012 50.5507 215.099 52.324 215.367 54.1131C215.516 55.0037 215.698 55.91 216.092 56.777C216.502 57.6755 217.164 58.3533 217.849 58.968C219.229 60.1896 220.915 60.9384 222.003 62.1757C222.586 62.7432 222.941 63.4998 222.996 64.351C223.075 65.2022 222.83 66.0691 222.602 66.9282C222.972 66.1243 223.366 65.2889 223.406 64.351C223.492 63.4289 223.201 62.4279 222.602 61.6635C221.309 60.2369 219.623 59.5276 218.354 58.3848Z" fill="#344A51"/>
<path d="M225.557 53.8845C224.58 53.0412 223.563 52.253 222.57 51.457L221.845 50.8501C221.64 50.661 221.459 50.4482 221.294 50.2039C220.97 49.7152 220.734 49.1478 220.545 48.5567C219.796 46.1765 219.528 43.5993 218.905 41.093C218.606 39.832 218.228 38.5788 217.684 37.3809C217.124 36.1908 216.383 35.0322 215.327 34.1731C214.295 33.2904 212.979 32.7702 211.655 32.5969C211.324 32.5417 210.993 32.4865 210.654 32.5102C210.315 32.518 209.976 32.4708 209.645 32.5338C208.967 32.5969 208.321 32.8096 207.706 33.054C206.469 33.5741 205.405 34.3859 204.506 35.3238C203.608 36.2617 202.859 37.3336 202.292 38.4842C203.663 36.3484 205.602 34.4805 207.942 33.6924C209.109 33.3377 210.331 33.1958 211.536 33.3771C212.742 33.5347 213.901 33.9997 214.823 34.78C216.699 36.3484 217.55 38.8547 218.141 41.2743C218.748 43.7332 219.008 46.2868 219.796 48.801C220.001 49.4236 220.253 50.0541 220.639 50.6373C220.829 50.9289 221.057 51.2048 221.325 51.4412L222.074 52.0639C223.075 52.8678 224.084 53.648 225.045 54.4756C226.968 56.1149 228.781 57.9355 229.845 60.1738C230.389 61.2772 230.672 62.4988 230.664 63.7125C230.672 64.9184 230.404 66.1636 229.995 67.338C229.593 68.5044 229.017 69.6236 228.213 70.5378C227.804 70.9792 227.346 71.3811 226.842 71.7043C226.345 72.0116 225.754 72.256 225.234 72.3348L224.478 72.453L224.99 73.0047C225.573 73.6273 226.046 74.4076 226.479 75.1642C226.889 75.9444 227.165 76.7956 227.244 77.6783C227.299 78.1197 227.244 78.5611 227.205 79.0024C227.094 79.4359 227.015 79.8773 226.803 80.2792C226.653 80.7048 226.385 81.0752 226.148 81.4693C225.896 81.8476 225.573 82.1786 225.281 82.5333C225.605 82.2023 225.959 81.9028 226.259 81.5481C226.535 81.1777 226.858 80.823 227.047 80.3895C227.299 79.9876 227.425 79.5305 227.575 79.0733C227.662 78.6083 227.756 78.1355 227.74 77.6547C227.74 76.6932 227.512 75.7395 227.141 74.8568C226.858 74.1632 226.464 73.5406 225.991 72.9495C227.126 72.5949 228.04 71.8855 228.812 71.058C229.703 70.0413 230.318 68.8354 230.743 67.5902C231.177 66.3528 231.46 65.0524 231.453 63.7047C231.46 62.3648 231.137 61.025 230.554 59.8349C229.403 57.439 227.504 55.5474 225.557 53.8845Z" fill="#344A51"/>
<path d="M233.155 57.2658C233.052 56.2018 232.832 55.1457 232.422 54.1368C232.004 53.1359 231.389 52.2059 230.617 51.4257C229.9 50.7242 229.088 50.1646 228.119 49.7863C228.15 49.3213 228.19 48.8563 228.174 48.3913C228.134 47.8239 228.134 47.2564 228 46.6968C227.811 45.5777 227.402 44.49 226.818 43.5285C226.243 42.5591 225.502 41.6922 224.651 40.9671C223.784 40.2735 222.838 39.6666 221.798 39.2883C222.751 39.8321 223.634 40.4863 224.383 41.2587C225.155 42.0074 225.802 42.8822 226.282 43.828C226.755 44.7738 227.134 45.7747 227.26 46.8308C227.378 47.3431 227.362 47.879 227.402 48.4071C227.417 48.9351 227.338 49.4632 227.323 49.9912L227.315 50.3223L227.614 50.4168C228.505 50.7085 229.396 51.2838 230.113 51.9616C230.846 52.6394 231.429 53.4827 231.886 54.3891C232.335 55.3033 232.611 56.3042 232.792 57.3209C232.887 57.8332 232.918 58.3534 232.989 58.8657C232.997 59.3858 233.013 59.9139 233.037 60.442C233.1 59.9218 233.155 59.3937 233.194 58.8657C233.171 58.3297 233.202 57.7938 233.155 57.2658Z" fill="#344A51"/>
<path d="M220.025 116.171L219.993 115.943C219.985 115.903 219.977 115.864 219.969 115.824L215.319 91.006L212.364 89.1381L190.911 101.961L193.441 119.82C193.48 120.214 193.535 120.593 193.606 120.979L193.638 121.192C194.859 127.355 200.29 132.013 206.815 132.013C214.24 132.013 220.253 125.999 220.253 118.575C220.253 117.755 220.166 116.951 220.025 116.171Z" fill="#E8AD90"/>
<path d="M215.65 78.4744C215.146 78.4744 214.657 78.5296 214.184 78.632C211.276 76.9533 212.845 70.4906 213.964 66.9676C214.381 65.6514 214.027 64.217 213.026 63.2633C207.659 58.1483 212.852 52.3082 210.37 47.1853C207.659 41.5896 196.128 43.9619 196.128 43.9619C192.7 43.4732 187.758 43.686 185.283 43.8515C184.416 43.9067 183.597 44.2535 182.982 44.8603C181.224 46.61 179.262 46.6415 177.891 46.3341C177.032 46.145 176.243 46.8543 176.267 47.7292C176.409 53.2461 174.084 53.7978 174.084 53.7978C171.199 68.5518 170.498 88.2079 170.498 88.2079C170.443 88.8069 170.411 89.4138 170.411 90.0285C170.411 101.551 179.751 110.883 191.265 110.883C201.03 110.883 209.219 104.176 211.497 95.1199L211.505 95.0884C211.662 94.4657 211.788 93.8352 211.883 93.1968L212.238 91.455C213.247 92.0225 214.405 92.3535 215.642 92.3535C219.473 92.3535 222.586 89.2483 222.586 85.41C222.594 81.5797 219.481 78.4744 215.65 78.4744Z" fill="#FFBE9D"/>
<path d="M107.526 174.493C107.526 174.493 110.339 178.773 112.452 176.96C114.564 175.14 106.47 168.157 106.47 168.157L103.656 168.566L103.073 171.617L107.526 174.493Z" fill="#6F4C47"/>
<path d="M133.077 172.373C133.077 172.373 129.034 171.215 126.149 166.596C123.265 161.978 118.071 154.144 114.603 151.834C111.135 149.525 101.504 156.831 102.592 158.865C103.9 161.316 111.774 155.657 111.774 155.657L115.872 159.558C115.872 159.558 112.176 158.171 111.025 160.717C111.025 160.717 107.329 160.252 106.178 162.908C106.178 162.908 104.145 162.096 102.56 164.405C100.976 166.715 98.6671 171.104 99.3606 172.949C100.054 174.793 105.366 175.376 107.557 177.914C109.748 180.452 110.789 177.796 109.291 175.258C107.794 172.72 105.185 171.491 105.185 171.491L105.689 170.616C105.689 170.616 112.988 180.917 120.262 181.374C127.537 181.839 133.085 182.067 133.085 182.067V172.373H133.077Z" fill="#FFBE9D"/>
<path d="M111.592 166.73C110.836 166.076 110.056 165.469 109.252 164.91C108.448 164.35 107.604 163.838 106.73 163.467C105.839 163.058 104.964 162.947 104.16 163.357C103.38 163.751 102.742 164.539 102.316 165.335L102.292 165.375C101.362 166.841 100.456 168.346 99.6916 169.93C99.9044 169.071 100.22 168.236 100.574 167.424C100.929 166.612 101.331 165.824 101.772 165.044L101.749 165.083C102.198 164.121 102.844 163.247 103.837 162.719C104.83 162.167 106.131 162.38 106.998 162.86C107.936 163.302 108.763 163.893 109.528 164.547C110.276 165.217 110.978 165.942 111.592 166.73Z" fill="#6F4C47"/>
<path d="M106.17 162.9C106.454 161.962 107.25 161.197 108.172 160.78C108.637 160.575 109.126 160.441 109.638 160.37C110.174 160.315 110.702 160.394 111.183 160.543C112.152 160.851 113.011 161.363 113.776 161.962C114.548 162.561 115.25 163.239 115.833 164.003C115.045 163.444 114.272 162.9 113.468 162.411C112.664 161.93 111.837 161.481 110.978 161.229C110.552 161.111 110.111 161.024 109.693 161.063C109.26 161.111 108.803 161.182 108.377 161.331C107.542 161.615 106.746 162.12 106.17 162.9Z" fill="#6F4C47"/>
<path d="M111.025 160.709C111.23 159.826 112.089 159.164 112.995 158.951C113.453 158.849 113.918 158.825 114.383 158.865C114.848 158.928 115.313 159.03 115.73 159.227C116.574 159.582 117.307 160.118 117.953 160.725C118.599 161.331 119.174 162.001 119.632 162.75C118.97 162.183 118.307 161.631 117.622 161.134C116.936 160.638 116.219 160.181 115.462 159.881C115.084 159.724 114.698 159.629 114.312 159.566C113.91 159.534 113.508 159.503 113.114 159.558C112.318 159.637 111.545 159.999 111.025 160.709Z" fill="#6F4C47"/>
<path d="M104.838 169.371C105.973 170.624 107.029 171.893 108.117 173.138C109.189 174.399 110.316 175.605 111.403 176.897C109.945 176.03 108.684 174.88 107.573 173.603C107.021 172.965 106.501 172.295 106.044 171.593C105.587 170.892 105.161 170.159 104.838 169.371Z" fill="#6F4C47"/>
<path d="M105.997 170.805L104.625 172.381L105.382 170.434L105.997 170.805Z" fill="#6F4C47"/>
<path d="M156.311 165.84C156.311 165.84 158.211 166.454 160.213 165.737C162.459 164.933 165.399 162.782 165.399 162.782L161.978 161.962L156.311 165.84Z" fill="#E8AD90"/>
<path d="M172.516 165.918C172.516 165.918 168.221 166.084 164.335 168.346C160.45 170.616 158.503 172.759 157.778 170.876C157.045 168.992 162.554 165.406 162.554 165.406L164.044 163.68C164.264 163.428 164.052 163.042 163.72 163.089L161.774 163.515C161.774 163.515 154.531 167.865 152.214 166.636C152.214 166.636 148.305 169.331 146.523 168.275C144.742 167.219 152.111 161.718 155.35 160.417C158.59 159.125 163.46 159.653 172.524 158.069V165.918H172.516Z" fill="#FFBE9D"/>
<path d="M146.247 167.889C146.523 168.275 146.98 168.464 147.413 168.48C147.855 168.488 148.288 168.338 148.698 168.165C149.518 167.771 150.329 167.29 151.133 166.833L155.996 164.066L156.051 164.035L156.106 164.027C158.629 163.633 161.158 163.302 163.712 163.097C161.229 163.743 158.731 164.256 156.217 164.705L156.335 164.665C154.727 165.619 153.088 166.533 151.417 167.377C150.574 167.786 149.746 168.212 148.832 168.535C148.375 168.693 147.87 168.78 147.382 168.701C146.909 168.614 146.436 168.322 146.247 167.889Z" fill="#6F4C47"/>
<path d="M238.357 122.468C233.462 107.793 220.986 108.471 220.986 108.471C220.986 108.471 216.391 105.129 207.32 107.722C198.973 110.11 193.212 118.212 193.212 118.212C193.212 118.212 180.397 122.46 176.638 132.809C172.878 143.157 167.227 175.518 167.227 175.518L132.415 172.129L129.594 183.415C129.594 183.415 149.541 192.825 178.702 196.396L174.683 228C190.966 224.769 207.367 219.11 223.406 210.574C233.289 205.317 242.124 199.194 249.934 192.408L237.978 169.489C237.978 169.512 243.243 137.143 238.357 122.468Z" fill="#F05322"/>
<path d="M177.048 196.199C177.04 196.199 177.032 196.191 177.032 196.191C177.04 196.199 177.048 196.199 177.048 196.199Z" fill="#BC4B42"/>
<path d="M189.114 199.288C190.643 195.544 191.691 155.87 191.691 155.87C191.691 155.87 186.166 186.378 184.724 192.455C183.762 196.514 180.641 196.821 178.687 196.577L177.78 204.427C181.303 204.482 187.009 204.427 189.114 199.288Z" fill="#E2544D"/>
<path d="M193.212 118.22C197.2 115.241 201.692 112.979 206.35 111.222C208.691 110.347 211.103 109.669 213.546 109.165C215.989 108.652 218.496 108.447 220.978 108.479C218.527 108.905 216.123 109.409 213.759 110.063C211.402 110.741 209.054 111.45 206.76 112.333C204.459 113.176 202.189 114.114 199.927 115.099C197.681 116.1 195.435 117.117 193.212 118.22Z" fill="#A84338"/>
<path d="M193.212 141.36C193.047 145.112 192.747 148.863 192.385 152.607C191.983 156.343 191.533 160.078 190.99 163.798C189.91 171.238 188.475 178.631 186.868 185.977C186.45 187.813 186.009 189.641 185.551 191.462C185.425 191.927 185.339 192.353 185.189 192.849C185.047 193.346 184.818 193.819 184.55 194.26C184.007 195.143 183.211 195.86 182.296 196.349C181.374 196.821 180.334 197.058 179.301 197.003C178.766 196.971 178.324 196.884 177.851 196.821L176.456 196.609C174.596 196.325 172.744 196.01 170.892 195.663C163.507 194.299 156.099 192.802 148.982 190.351C152.599 191.352 156.264 192.156 159.953 192.849C163.633 193.574 167.33 194.205 171.042 194.764L176.606 195.592L178.001 195.789C178.458 195.852 178.947 195.931 179.349 195.947C180.192 195.986 181.043 195.781 181.792 195.387C182.533 194.985 183.171 194.394 183.605 193.669C183.818 193.306 183.999 192.928 184.109 192.518C184.227 192.116 184.33 191.62 184.44 191.178C184.882 189.358 185.291 187.529 185.701 185.701C187.404 178.395 188.814 171.034 190.083 163.641C190.737 159.944 191.289 156.24 191.801 152.52C192.369 148.824 192.779 145.088 193.212 141.36Z" fill="#A84338"/>
<path d="M207.099 180.964C207.895 180.215 208.715 179.482 209.542 178.749C210.409 178.071 211.245 177.354 212.143 176.708C213.065 176.101 213.932 175.415 214.902 174.88L216.328 174.036L217.81 173.28C219.804 172.31 221.885 171.483 224.068 170.962C225.155 170.71 226.259 170.49 227.386 170.395C228.521 170.293 229.616 170.253 230.822 170.419C231.129 170.458 231.342 170.742 231.303 171.049C231.279 171.238 231.161 171.396 231.003 171.475L230.988 171.483C228.458 172.736 225.912 173.965 223.358 175.171C222.074 175.762 220.805 176.369 219.504 176.944C218.212 177.52 216.927 178.111 215.627 178.655C216.84 177.922 218.07 177.236 219.299 176.527C220.521 175.817 221.766 175.148 222.996 174.454C225.478 173.098 227.969 171.774 230.467 170.466L230.625 171.53C229.656 171.404 228.552 171.443 227.504 171.554C226.448 171.656 225.392 171.853 224.344 172.082C222.255 172.578 220.222 173.319 218.251 174.194C216.257 175.045 214.381 176.141 212.514 177.252L209.771 179.033C208.88 179.687 207.998 180.333 207.099 180.964Z" fill="#A84338"/>
<path d="M182.044 124.951C183.384 124.124 184.952 123.58 186.6 123.572C187.419 123.564 188.255 123.73 189.027 124.061C189.799 124.399 190.485 124.928 191.029 125.558C192.117 126.835 192.7 128.419 192.983 129.987C193.283 131.564 193.315 133.164 193.204 134.74C193.007 133.171 192.771 131.619 192.384 130.129C191.99 128.648 191.407 127.197 190.43 126.078C189.484 124.935 188.073 124.289 186.568 124.187C185.078 124.084 183.518 124.392 182.044 124.951Z" fill="#A84338"/>
<path d="M135.812 185.992C136.056 186.087 136.301 186.174 136.561 186.268L139.603 172.838L138.815 172.759L135.812 185.992Z" fill="#A84338"/>
<path d="M198.564 72.2402C198.564 73.2569 197.736 74.0845 196.719 74.0845C195.703 74.0845 194.875 73.2569 194.875 72.2402C194.875 71.2235 195.703 70.396 196.719 70.396C197.736 70.396 198.564 71.2235 198.564 72.2402Z" fill="#263238"/>
<path d="M180.145 68.9538C180.145 70.0651 179.506 70.9714 178.71 70.9714C177.922 70.9714 177.276 70.0651 177.276 68.9538C177.276 67.8425 177.914 66.9362 178.71 66.9362C179.498 66.9362 180.145 67.8425 180.145 68.9538Z" fill="#263238"/>
<path d="M186.245 92.7239C186.686 94.8361 188.885 96.1602 191.147 95.6794C193.409 95.1987 194.883 93.1022 194.442 90.99C194 88.8778 191.801 87.5537 189.539 88.0345C187.269 88.5153 185.796 90.6196 186.245 92.7239Z" fill="#F05322"/>
<path d="M194.103 67.1568C194.111 66.2899 194.528 65.3914 195.293 64.8082C196.042 64.1935 197.082 64.0043 197.988 64.1068C198.895 64.2013 199.864 64.5954 200.479 65.3363C201.109 66.0613 201.346 67.0307 201.172 67.8741C200.849 67.078 200.408 66.4239 199.832 65.9904C199.257 65.5648 198.587 65.352 197.854 65.2732C197.129 65.2023 196.428 65.2574 195.781 65.5727C195.143 65.888 194.576 66.4475 194.103 67.1568Z" fill="#263238"/>
<path d="M176.393 63.9412C176.362 63.1768 176.606 62.3729 177.181 61.7423C177.749 61.0803 178.758 60.8281 179.593 60.97C180.011 61.0567 180.436 61.1828 180.799 61.4271C181.154 61.6793 181.477 61.9867 181.682 62.3571C182.099 63.0822 182.21 63.9097 182.044 64.6585C181.776 63.9491 181.445 63.3107 181.012 62.8379C180.578 62.365 180.042 62.097 179.428 62.0103C178.813 61.9079 178.245 62.0024 177.725 62.3571C177.221 62.7118 176.779 63.2871 176.393 63.9412Z" fill="#263238"/>
<path d="M184.913 61.4508C184.322 63.8546 183.707 66.2506 183.061 68.6229C182.438 71.003 181.784 73.3753 181.225 75.7555C180.933 76.9456 180.673 78.1357 180.484 79.3258C180.381 79.9169 180.302 80.5159 180.279 81.0912C180.263 81.3828 180.271 81.6665 180.31 81.9187C180.35 82.1946 180.389 82.3207 180.563 82.5414C181.154 83.3689 182.407 83.6526 183.573 83.7236C184.771 83.8024 186.001 83.6605 187.222 83.4477C186.072 83.9127 184.842 84.1807 183.581 84.2989C182.943 84.3304 182.296 84.3068 181.642 84.1649C180.988 84.0231 180.326 83.6763 179.845 83.1246C179.601 82.8882 179.388 82.4389 179.333 82.1C179.262 81.7454 179.246 81.4143 179.246 81.0833C179.246 80.4292 179.301 79.7908 179.38 79.1681C179.546 77.915 179.806 76.6934 180.082 75.4797C180.673 73.0601 181.382 70.6878 182.186 68.347C182.982 66.0141 183.888 63.7049 184.913 61.4508Z" fill="#263238"/>
<path d="M197.555 88.4602C197.523 88.0819 197.373 87.6957 197.129 87.3962C196.893 87.081 196.577 86.8288 196.239 86.6554C195.892 86.482 195.521 86.3716 195.135 86.3401C194.757 86.3086 194.371 86.348 194.016 86.5056C194.647 86.7972 195.19 87.01 195.71 87.2701C195.419 87.6248 195.143 87.9794 194.844 88.3105L194.126 89.0513L193.78 89.4217L193.393 89.7449C193.133 89.9577 192.881 90.1784 192.629 90.399L191.793 90.9507C191.533 91.1556 191.226 91.2817 190.934 91.4394C190.643 91.5891 190.351 91.7468 190.036 91.8413C188.822 92.3457 187.498 92.5901 186.158 92.6452C184.811 92.6846 183.439 92.5506 182.052 92.2669C183.266 93.0156 184.684 93.4255 186.135 93.5674C187.585 93.7092 189.098 93.4885 190.477 92.9447C191.833 92.3694 193.125 91.5497 194.048 90.4069L194.418 90.005C194.528 89.8631 194.631 89.7133 194.725 89.5557L195.316 88.6494C195.545 88.2317 195.734 87.8061 195.915 87.3726C196.191 87.5066 196.443 87.6721 196.704 87.8376C196.987 88.011 197.232 88.2317 197.555 88.4602Z" fill="#263238"/>
<path d="M195.356 59.2045L205.349 60.4261C205.799 60.4813 206.13 60.0163 205.893 59.6458C205.271 58.6686 203.868 57.1869 200.952 56.714C197.957 56.2253 196.01 57.4469 195.041 58.3139C194.71 58.6134 194.899 59.1493 195.356 59.2045Z" fill="#263238"/>
<path d="M176.685 55.1141L183.849 57.2736C184.188 57.376 184.503 57.1002 184.48 56.7534C184.401 55.8076 183.802 54.1447 180.775 53.2935C178.387 52.6236 177.055 53.6324 176.448 54.3338C176.22 54.6018 176.346 55.0116 176.685 55.1141Z" fill="#263238"/>
<path d="M215.217 80.7996C216.494 80.7996 217.865 81.1463 218.874 82.1157C219.386 82.5886 219.733 83.227 219.906 83.9048C220.08 84.5826 220.064 85.2841 219.977 85.9461C219.875 86.6081 219.686 87.2781 219.323 87.877C218.968 88.476 218.44 88.9883 217.81 89.2957C216.541 89.9026 215.114 89.7528 213.924 89.3036C215.185 89.5006 216.517 89.406 217.55 88.807C218.574 88.2002 219.11 87.0416 219.268 85.8437C219.465 84.6457 219.276 83.4004 218.464 82.5098C217.676 81.6113 216.462 81.0675 215.217 80.7996Z" fill="#6F4C47"/>
</svg>
