<svg id="Слой_1" data-name="Слой 1" xmlns="http://www.w3.org/2000/svg" xmlns:xlink="http://www.w3.org/1999/xlink" viewBox="0 0 100.12 100.14"><defs><style>.cls-1{fill:url(#Безымянный_градиент_30);}</style><linearGradient id="Безымянный_градиент_30" x1="50.06" x2="50.06" y2="100.14" gradientUnits="userSpaceOnUse"><stop offset="0" stop-color="#bbbaba"/><stop offset="1" stop-color="#f05322"/></linearGradient></defs><title>Skype</title><g id="Слой_2" data-name="Слой 2"><g id="Слой_1-2" data-name="Слой 1-2"><path class="cls-1" d="M94.9,59.83a48.57,48.57,0,0,0,1-9.77,44.94,44.94,0,0,0-3.62-17.83A44.91,44.91,0,0,0,67.88,7.79,45.1,45.1,0,0,0,50.06,4.17a48.66,48.66,0,0,0-9.78,1A24.37,24.37,0,0,0,25,0,24.16,24.16,0,0,0,7.33,7.33,24.13,24.13,0,0,0,0,25,24.37,24.37,0,0,0,5.21,40.28a48.66,48.66,0,0,0-1,9.78A45.1,45.1,0,0,0,7.79,67.88,44.92,44.92,0,0,0,32.23,92.32a44.94,44.94,0,0,0,17.83,3.62,48.66,48.66,0,0,0,9.78-1,25,25,0,0,0,32.94-2.12,24.08,24.08,0,0,0,7.33-17.69A24.45,24.45,0,0,0,94.9,59.83ZM74.3,69.51a16.88,16.88,0,0,1-5.77,6.1,29.66,29.66,0,0,1-8,3.48,33.85,33.85,0,0,1-9.12,1.21q-11,0-19-4.27t-7.9-10.26a7.3,7.3,0,0,1,1.66-4.89,6.11,6.11,0,0,1,4.92-2,6.43,6.43,0,0,1,3.52,1,15.73,15.73,0,0,1,3,2.52,32.09,32.09,0,0,0,3,2.93,13.59,13.59,0,0,0,4.24,2.51,16.14,16.14,0,0,0,6,1,12.55,12.55,0,0,0,6.85-1.66A4.91,4.91,0,0,0,60.31,63a4.32,4.32,0,0,0-2.09-3.91c-1-.6-3.39-1.39-7.3-2.34L41.4,54.37a40.53,40.53,0,0,1-6.71-2.12,21.71,21.71,0,0,1-5.22-3.16,12.31,12.31,0,0,1-3.64-4.92,17.92,17.92,0,0,1-1.24-6.94,15.65,15.65,0,0,1,8-14,29.87,29.87,0,0,1,7.79-3.06,36.62,36.62,0,0,1,8.6-1,45.67,45.67,0,0,1,11.87,1.5A25.25,25.25,0,0,1,70,25.13q3.65,2.89,3.65,6.48a7.26,7.26,0,0,1-1.86,5,6.73,6.73,0,0,1-8,1.3A12.49,12.49,0,0,1,61.14,36c-.79-.74-1.61-1.46-2.48-2.18A11.45,11.45,0,0,0,55.14,32a15.16,15.16,0,0,0-5-.78q-9.37,0-9.38,5a3.88,3.88,0,0,0,.49,2,5.23,5.23,0,0,0,1.07,1.36,6.26,6.26,0,0,0,2,1q1.36.51,2.28.75l2.87.68,6.77,1.57c2.13.47,4,1,5.71,1.49a36,36,0,0,1,5.38,2.22A20.24,20.24,0,0,1,72,50.51,14.34,14.34,0,0,1,75.18,55a13.81,13.81,0,0,1,1.28,6,17.12,17.12,0,0,1-2.16,8.57Z" transform="translate(0 0)"/></g></g></svg>