<svg xmlns="http://www.w3.org/2000/svg" xmlns:xlink="http://www.w3.org/1999/xlink" viewBox="0 0 99.13 83.27"><defs><style>.cls-1{fill:url(#Безымянный_градиент_30);}</style><linearGradient id="Безымянный_градиент_30" x1="49.57" x2="49.57" y2="83.27" gradientUnits="userSpaceOnUse"><stop offset="0" stop-color="#bbbaba"/><stop offset="1" stop-color="#f05322"/></linearGradient></defs><title>telegram</title><g id="Слой_2" data-name="Слой 2"><g id="Слой_1-2" data-name="Слой 1"><g id="Telegram"><path class="cls-1" d="M78.17,83.27a5.44,5.44,0,0,0,5.1-4L99.13,4c0-1.14-.56-1.7-1.13-2.84A4.35,4.35,0,0,0,95.73,0C95.17,0,64,11.33,2.27,34.55A3.11,3.11,0,0,0,0,38c0,1.14,1.13,2.84,2.27,2.84l22.65,6.79L34,74.77A3.11,3.11,0,0,0,37.39,77a2.94,2.94,0,0,0,2.26-1.13l13-12.47,23.23,17C76.47,82.7,77,82.7,78.17,83.27ZM36.82,69.11,30,46.45c32.86-21,49.29-31.72,49.85-31.72s1.14,0,1.14,1.13v.57S66.84,29.46,38.52,55Z"/></g></g></g></svg>